<?xml version="1.0" encoding="utf-8"?>
<!-- Generator: Adobe Illustrator 16.0.0, SVG Export Plug-In . SVG Version: 6.00 Build 0)  -->
<!DOCTYPE svg PUBLIC "-//W3C//DTD SVG 1.1//EN" "http://www.w3.org/Graphics/SVG/1.1/DTD/svg11.dtd">
<svg version="1.1" id="图层_1" xmlns="http://www.w3.org/2000/svg" xmlns:xlink="http://www.w3.org/1999/xlink" x="0px" y="0px"
	 width="640px" height="1138px" viewBox="0 0 640 1138" enable-background="new 0 0 640 1138" xml:space="preserve">

<g id="cow">
	<path fill="#C8A146" d="M90.124,571.163c-0.692,0.705-0.683,1.844,0.03,2.542c1.741,1.708,2.85,4.001,2.626,4.521   c-0.04,0.049-0.271,0.194-0.836,0.277c-1.36,0.2-2.285-0.483-2.713-0.912c-0.802-0.803-1.183-1.943-1.029-3.056   c0.137-0.935-0.48-1.813-1.41-2.002c-0.917-0.197-1.841,0.362-2.092,1.266c-0.68,2.432-2.432,5.409-3.762,5.751   c-0.16,0.043-0.568,0.146-1.33-0.635c-0.912-0.926-1.163-1.881-0.778-2.921c0.649-1.704,2.921-3.278,4.971-3.439   c0.8-0.061,1.459-0.638,1.625-1.421c0.164-0.786-0.214-1.58-0.918-1.954c-1.143-0.605-2.065-1.555-2.248-2.001   c0.051-0.051,0.147-0.116,0.307-0.196c0.553-0.282,1.194-0.309,1.887-0.071c1.012,0.353,1.967,1.195,2.42,2.168   c0.238,0.502,0.689,0.864,1.233,0.984c0.537,0.122,1.105-0.011,1.533-0.368c4.49-3.72,9.649-6.086,15.738-7.248   c4.763,2.827,11.154,4.338,18.213,4.129c0.191-0.009,0.388-0.014,0.578-0.027c7.507-0.32,24.915-4.067,30.795-13.553   c2.363-3.823,2.56-8.018,0.58-12.488c-1.472-3.314-3.373-5.607-5.046-7.63c-2.668-3.225-4.772-5.767-4.865-11.571   c-0.013-0.886-0.016-1.727-0.022-2.53c-0.005-1.311-0.012-2.54-0.061-3.714c1.893-0.865,7.637-2.031,11.175-1.299   c0.943,0.193,1.397,0.476,1.553,0.646c-1.241,0.8-6.046,1.006-7.612,0.567c-0.949-0.267-1.944,0.282-2.212,1.236   c-0.269,0.957,0.287,1.949,1.24,2.215c0.697,0.197,2.499,0.399,4.517,0.338c2.687-0.084,5.754-0.628,7.062-2.278   c0.844-1.067,0.917-2.432,0.19-3.747c-0.691-1.249-2.045-2.083-4.017-2.49c-3.52-0.729-8.911-0.041-12.235,1.106   c-0.487-2.881-1.578-5.346-4.077-7.503c4.59-6.142,3.481-13.399,1.876-13.35c-1.036,0.03-1.743,3.899-4.638,6.959   c-1.354,1.442-2.339,2.249-3.388,2.829c-3.378-1.387-7.477-2.019-12.175-1.882c-4.981,0.148-8.921,1.127-9.42,1.25   c-1.917,0.413-3.618,1.083-5.128,1.968c-1.267-0.241-2.49-0.731-4.346-1.802c-3.651-2.114-5.433-5.614-6.434-5.35   c-1.556,0.415-0.538,7.713,5.655,12.291c-1.282,2.204-2.074,4.845-2.309,7.866c-4.207,0.385-11.816,2.524-12.956,6.865   c-0.674,2.571,0.729,3.807,1.357,4.215c0.842,0.543,1.943,0.743,3.112,0.703c2.536-0.074,5.4-1.216,6.682-2.241   c0.774-0.617,0.898-1.743,0.284-2.521c-0.62-0.773-1.747-0.9-2.524-0.287c-1.308,1.046-4.613,1.766-5.5,1.39   c0.003-0.073,0.018-0.187,0.057-0.347c0.493-1.876,5.888-3.819,9.45-4.195c0,0.046,0,0.103,0.003,0.151   c0.12,2.066,0.329,3.931,0.511,5.576c0.607,5.584,1.015,9.278-1.959,15.209c-4.122,8.242-2.381,14.058-0.193,17.486   c0.686,1.075,1.526,2.064,2.487,2.985c-4.739,1.263-8.952,3.265-12.75,6.095c-0.889-0.996-2.043-1.782-3.273-2.202   c-1.599-0.551-3.26-0.456-4.675,0.263c-1.989,1.012-2.3,2.488-2.309,3.276c-0.006,1.139,0.553,2.158,1.263,2.992   c-2.019,1.047-3.696,2.756-4.421,4.682c-0.879,2.343-0.308,4.784,1.572,6.699c1.371,1.403,2.719,1.768,3.804,1.734   c0.356-0.009,0.683-0.06,0.976-0.138c1.738-0.448,3.167-1.94,4.244-3.617c0.195,0.253,0.403,0.496,0.632,0.724   c1.539,1.531,3.63,2.236,5.756,1.923c2.469-0.36,3.391-1.668,3.732-2.711c1.161-3.545-3.33-8.014-3.523-8.202   C91.956,570.444,90.822,570.459,90.124,571.163 M102.557,540.761c3.439-6.881,2.941-11.438,2.309-17.208   c-0.188-1.68-0.375-3.423-0.49-5.396c-0.285-4.766,0.609-13.062,9.797-14.989l0.087-0.021c0.04-0.012,3.866-1.001,8.656-1.148   c4.233-0.124,7.869,0.43,10.794,1.651c8.245,3.427,8.262,6.863,8.311,15.146c0.006,0.815,0.009,1.667,0.021,2.559   c0.109,7.074,2.946,10.495,5.69,13.813c1.599,1.932,3.254,3.928,4.53,6.8c1.489,3.357,1.378,6.353-0.35,9.139   c-4.428,7.138-19.052,11.478-27.906,11.86l-0.523,0.022c-9.549,0.292-17.915-2.962-21.308-8.28   C99.721,550.864,99.846,546.168,102.557,540.761"/>
	<path fill="#C8A146" d="M273.817,657.519c-0.044-0.6-4.25-60.325-1.543-91.399c0.583-6.633-0.17-10.598-1.47-16.336   c-0.189-0.825-0.915-1.379-1.72-1.396c-5.127-2.278-19.584,10.163-21.198,15.455c-3.96,12.915,11.181,14.157,20.114,14.414   c-0.778,23.505,0.717,54.275,1.624,69.749c-1.682,0.887-4.737,2.204-7.541,1.909c-0.633-7.781-1.629-19.285-2.281-23.076   c-1.402-8.161-3.588-17.477-9.1-24.586c-1.829-2.358-7.077-5.619-31.433-6.683c-14.097-0.613-28.933-0.211-35.484,0.121   c-17.601,0.903-20.241,5.186-20.741,20.522c-0.295,8.954-0.565,21.49,0.094,33.688c-2.345,1.182-5.31,0.468-7.708,0.221   c-0.157-1.388-0.327-2.887-0.502-4.406c-0.949-8.352-2.251-19.787-3.723-29.363c-1.475-9.598-4.92-13.823-7.546-15.682   c-2.139-1.507-4.559-2.065-6.996-1.595c-6.509,1.238-7.44,9.537-7.8,17.222c-0.432,9.2-0.335,24.504,0.015,34.149   c-2.336,0.726-4.766,1.282-7.271,0.654c-0.417-5.144-0.962-12.385-1.569-20.311c-0.864-11.479-1.873-28.448-2.856-40.266   c10.255,2.091,19.353-5.742,19.29-9.462c0.832-6.004-15.962-7.899-21.62-7.41c-0.299-0.154-0.64-0.23-0.994-0.2   c-0.985,0.097-1.71,0.974-1.613,1.962c1.351,14.072,2.943,38.718,4.222,55.645c0.997,13.242,1.786,23.695,2.182,27.149   c0.063,0.568,0.362,1.085,0.844,1.45c0.96,0.738,3.136,0.964,5.406,0.964c2.678,0,5.485-0.317,6.567-0.486l1.81-0.277l-0.314-1.8   c-0.686-3.943-1.104-29.052-0.514-41.591c0.321-6.781,1.127-13.152,4.887-13.871c1.477-0.281,2.916,0.057,4.257,1.001   c2.914,2.06,5.064,6.78,6.066,13.297c1.469,9.511,2.759,20.901,3.702,29.216c0.39,3.436,0.728,6.403,0.997,8.483   c0.457,3.626,0.614,4.844,2.342,4.844c1.357,0,9.688-0.288,10.862-0.356l1.859-0.106l-0.176-1.853   c-1.285-14.16-0.964-30.066-0.617-40.788c0.454-13.75,1.78-16.259,17.346-17.05c7.61-0.394,16.631-0.565,25.476-0.433   c-0.701,2.636-0.451,4.984,0.088,6.749c-1.484,0.894-2.962,2.013-4.216,3.318c-1.877,1.939,0.026,4.485,2.376,3.448   c1.97-0.861,2.689-1.345,4.309-2.282c1.534,2.08,3.34,3.618,5.631,5.086c-0.064,0.164-1.805,2.457-2.319,4.378   c-0.501,1.896,0.989,3.437,2.936,2.78c1.576-0.531,2.717-3.889,3.398-5.008c0.74,0.328,1.479,0.62,2.21,0.877   c1.504,0.532,3.085,0.935,4.698,1.211c-0.002,0.018-0.008,0.027-0.012,0.043c-0.038,1.093-0.331,3.514-0.123,4.617   c0.195,1.021,0.966,1.729,1.994,2.024c1.356,0.39,2.212-0.532,2.649-1.629c0.376-0.915,0.515-3.483,0.724-4.451   c0.015-0.066,0.018-0.124,0.027-0.19c2.306-0.034,4.59-0.366,6.744-1.023c0.029,0.047,0.632,0.728,1.477,2.217   c0.776,1.381,1.622,2.436,2.585,2.861c1.141,0.509,2.819-0.256,2.781-1.706c-0.061-1.967-1.834-5.379-2.064-5.589   c1.857-1.079,4.153-3.306,5.678-6.264c0.074-0.13,0.129-0.281,0.182-0.439c2.695,5.528,4.08,11.834,5.063,17.574   c0.616,3.572,1.593,14.744,2.218,22.472l-0.253,9.478h7.605l8.121,0.048L273.817,657.519z"/>
	<path fill="#C8A146" d="M179.972,571.039c-4.515,2.354-5.5,7.048-0.375,8.263c3.85,0.912,16.056,0.446,16.416-4.812   C196.237,571.282,185.562,568.114,179.972,571.039"/>
	<path fill="#C8A146" d="M189.289,544.912c-12.094-6.189-26.968,1.816-24.638,11.985c2.391,10.423,25.621,10.934,33.855,11.224   C219.742,568.866,201.379,551.097,189.289,544.912"/>
	<path fill="#C8A146" d="M236.931,628.812h-0.035c-0.972,0-1.772,0.784-1.79,1.766c-0.049,2.945-0.271,6.177-0.492,9.593   c-0.236,3.472-0.468,7.007-0.541,10.416c-1.66,0.356-3.425,0.543-5.208,0.262c-1.063-0.161-1.978-0.598-2.907-0.972   c0.113-3.672,0.024-7.5-0.058-11.267c-0.069-2.969-0.132-5.774-0.09-8.323c0.016-0.994-0.776-1.806-1.761-1.824   c-1.007,0.003-1.812,0.772-1.833,1.771c-0.039,2.617,0.03,5.458,0.095,8.458c0.147,6.516,0.301,13.255-0.599,18.722l-0.332,2.021   l3.504,0.109l0.005-0.043h13.109l-0.169-1.952c-0.441-5.138-0.037-11.238,0.361-17.141c0.232-3.46,0.449-6.729,0.504-9.772   C238.712,629.645,237.921,628.831,236.931,628.812"/>
	<path fill="#C8A146" d="M302.947,597.856c-4.669-4.599-13.382-7.454-17.661-8.651c-4.011-6.495-6.279-16.703-7.327-32.278   c-1.449-21.657-17.139-32.046-21.9-34.72c-14.578-8.158-27.341-8.801-42.521-8.801c-3.525,0-6.955,0.191-10.308,0.475   c-3.635,0.063-5.451,0.181-11.931,1c-3.356,0.427-6.815,1.055-10.284,1.608c-4.798,0.502-9.722,0.846-14.805,0.744   c-0.981-0.015,3.712,11.989,7.652,15.376c2.656,2.275,12.859,3.67,16.011,2.383c6.271-2.58,7.461-9.101,11.39-14.354   c0.916-1.227,1.626-2.282,2.411-3.192c3.225-0.276,6.507-0.454,9.863-0.454c5.19,0,10.084,0.082,14.856,0.525   c-2.938,1.325-5.475,3.422-10.576,3.709c-7.764,0.348-15.651,3.961-13.94,12.816c2.762,14.381,14.469,23.995,29.589,22.315   c10.1-1.125,18.881-10,23.395-18.39c1.751-3.252,3.023-6.02,2.362-9.317c5.937,4.669,14.16,13.724,15.163,28.516   c1.473,22.012,5.271,33.604,13.098,40.025c0.336,0.274,0.738,0.407,1.138,0.407c0.083,0,0.155-0.019,0.233-0.023   C292.876,600.14,298.257,600.931,302.947,597.856"/>
</g>

<g id="logo">
	<path fill="#c7a046" d="M125.988,12.467c2.735,0,4.969-2.217,4.969-4.946   c0-2.763-2.233-4.983-4.969-4.983c-2.756,0-4.985,2.22-4.985,4.983C121.003,10.25,123.232,12.467,125.988,12.467"/>
	<path fill="#c7a046" d="M48.543,33.448c2.322,0,4.219-1.869,4.219-4.197   c0-2.312-1.897-4.197-4.219-4.197c-2.339,0-4.244,1.885-4.244,4.197C44.299,31.58,46.204,33.448,48.543,33.448"/>
	<path fill="#c7a046" d="M72.693,57.677c-1.247-4.859-5.737-12.525-11.287-15.974   c5.203,2.929,11.83,6.993,18.725,3.11c8.647-4.847,4.844-19.098,4.844-19.098c5.49,19.216,15.449,19.93,18.444,19.93h0.124h0.129   h0.028c2.984,0,12.939-0.714,18.432-19.93c0,0-3.806,14.251,4.835,19.098c6.915,3.883,13.531-0.181,18.729-3.11   c-5.544,3.449-10.047,11.115-11.271,15.974c-1.413,5.542,0.303,4.896,0.193,4.789c5.852-13.854,20.512-23.191,18.52-26.312   c-2.081-3.247-11.024,8.162-21.924,3.27c-10.665-4.795-2.885-21.794-7.133-22.579c-4.234-0.79-5.401,20.674-20.381,20.684h-0.157   h-0.124c-14.974-0.01-16.166-21.474-20.394-20.684c-4.236,0.785,3.54,17.784-7.121,22.579C65,44.316,56.043,32.907,53.967,36.154   c-1.994,3.121,12.662,12.458,18.516,26.312C72.391,62.573,74.097,63.219,72.693,57.677"/>
	<path fill="#c7a046" d="M158.572,33.448c2.35,0,4.236-1.869,4.236-4.197   c0-2.312-1.887-4.197-4.236-4.197c-2.332,0-4.217,1.885-4.217,4.197C154.355,31.58,156.24,33.448,158.572,33.448"/>
	<path fill="#c7a046" d="M81.125,12.467c2.758,0,4.99-2.217,4.99-4.946c0-2.763-2.232-4.983-4.99-4.983   c-2.75,0-4.973,2.22-4.973,4.983C76.152,10.25,78.375,12.467,81.125,12.467"/>
	<path fill="#c7a046" d="M139.951,63.721c-0.599,0-1.089,0.493-1.089,1.105   c0,0.62,0.49,1.106,1.089,1.106h23.318c7.488,0,9.884-0.864,11.061-2.59c1.124-1.646,0.679-4.386-2.492-4.386   c-2.387,0-3.562,2.516-3.562,2.516c-1.516,2.411-4.319,2.249-9.205,2.249H139.951z"/>
	<path fill="#c7a046" d="M143.436,69.006c-2.133,0.052-3.172,1.636-3.172,3.8   c0,11.62,10.586,12.615,13.571,9.026c0.654-0.786-0.228-1.733-1.296-0.912c-1.986,1.53-5.866,0.007-5.875-7.869   C146.658,70.942,145.43,68.956,143.436,69.006"/>
	<path fill="#c7a046" d="M164.22,83.762c4.681,0,9.231-2.572,9.231-11.781   c0-2.148-1.208-3.168-2.58-3.168c-1.52,0-2.61,1.252-2.61,3.032c0,6.882-1.455,9.82-4.085,9.82c-2.75,0-3.9-3.188-3.9-9.291   c0-1.784-0.887-3.534-2.837-3.638c-1.846-0.098-3.158,1.291-3.158,3.439C154.28,82.028,159.961,83.762,164.22,83.762"/>
	<line fill="#c7a046" x1="98.52" y1="77.711" x2="110.633" y2="77.711"/>
	<path fill="#c7a046" d="M117.64,78.211h13.2c0.584,0,1.071-0.5,1.071-1.113   c0-0.614-0.487-1.119-1.071-1.119H77.834c-0.605,0-1.094,0.505-1.094,1.119c0,0.613,0.489,1.113,1.094,1.113h13.518"/>
	<path fill="#c7a046" d="M36.729,77.027H17.585c-0.607,0-1.086,0.498-1.086,1.102   c0,0.624,0.479,1.126,1.086,1.126h19.144c0.619,0,1.095-0.502,1.095-1.126C37.825,77.525,37.349,77.027,36.729,77.027"/>
	<path fill="#c7a046" d="M174.634,104.808c-2.669,3.486-6.737,5.479-10.999,6.591v-0.545   c0-5.141-1.545-8.45-3.703-10.104c8.084-2.274,11.539-6.52,12.947-9.26c0.844-1.665,1.631-4.847-1.436-5.92   c-2.857-0.989-4.313,1.994-4.313,1.994h-26.803c-0.609,0-1.096,0.495-1.096,1.123c0,0.608,0.486,1.09,1.096,1.09h26.361   c-2.178,7.129-12.246,9.49-14.527,9.337c-1.955-0.136-2.298,2.105,0,2.356c4.121,0.463,5.178,2.963,5.211,10.947   c-4.796,0.377-8.854,0.093-11.622-0.775c-4.701-1.477-7.992-1.941-8.503-0.035c-0.642,2.354,2.158,3.203,7.926,3.916   c2.791,0.342,7.35,0.559,12.199,0.021v2.712c0,18.284-9.378,11.987-28.31,6.204v-23.323c0-1.892-1.526-3.433-3.429-3.433   c-1.645,0-3.008,1.146-3.353,2.689H86.121c-0.342-1.543-1.718-2.689-3.347-2.689c-1.901,0-3.429,1.541-3.429,3.433v22.337   c-9.355,2.073-17.026,4.606-24.891,4.096c-8.593-0.551-19.175-2.476-19.175-21.862V94.294h2.781c0.605,0,1.082-0.49,1.082-1.107   c0-0.613-0.477-1.11-1.082-1.11H12.473c-0.603,0-1.086,0.497-1.086,1.11c0,0.617,0.483,1.107,1.086,1.107h5.972   c0,25.661-7.509,30.129-11.892,31.671c0.006-0.11,0.02-0.211,0.02-0.323c0-1.812-1.435-3.354-3.311-3.332   C1.451,122.327,0,123.83,0,125.642c0.012,1.857,1.328,3.26,3.585,3.506c2.306,0.254,21.651,0.295,21.317-34.836h4.258v11.614   c0,15.5,3.778,24.546,20.196,26.815c18.422,2.543,38.061-10.34,62.33-8.801c13.625,0.858,24.389,6.437,32.863,9.401   c9.732,3.394,19.086,1.873,19.086-11.7v-7.384c4.616-1.424,9.146-4.013,12.568-8.634   C176.934,104.646,175.668,103.46,174.634,104.808 M94.718,120.975c-3.089,0.306-5.905,0.694-8.51,1.14v-19.403h8.51V120.975z    M108.968,120.476c-1.46-0.078-2.925-0.115-4.4-0.087c-1.777,0.03-3.46,0.115-5.083,0.205v-17.883h9.484V120.476z M122.177,122.565   c-2.706-0.656-5.547-1.222-8.437-1.617v-18.237h8.437V122.565z"/>
	<path fill="#c7a046" d="M16.256,70.224v-4.121H62.77c0.314,6.514-3.565,10.113-5.228,10.974   c-1.085,0.558-1.788,1.498-1.788,2.706v3.197v2.103H39.106c-0.595,0-1.082,0.493-1.082,1.106c0,0.615,0.487,1.12,1.082,1.12h16.648   v17.561c-4.459,1.506-7.769-2.886-8.289-10.712c-0.054-0.938-0.772-3.107-2.718-2.805c-1.633,0.245-2.139,1.58-1.925,3.646   c0.863,8.421,5.747,12.983,12.932,11.608v0.935c0,15.61-9.201,9.649-10.754,7.381c-0.868-1.257-2.761-0.297-1.683,1.378   c1.327,2.034,6.84,5.75,10.779,5.155c4.021-0.615,7.242-2.494,7.242-17.309V87.309h6.895c0.609,0,1.084-0.505,1.084-1.12   c0-0.613-0.475-1.106-1.084-1.106h-6.895v-5.3c0-0.729-0.291-1.366-0.732-1.861c3.676-1.338,8.434-4.646,8.111-13.689   c-0.092-2.77-1.345-4.08-3.177-4.111c-1.677-0.035-3.174,1.413-2.983,3.763H16.11c-0.325-1.321-1.467-2.309-2.894-2.309   c-1.661,0-3.018,1.347-3.018,3.023v8.7c0,8.157-3.06,8.646-2.509,9.725C8.524,84.61,16.256,82.28,16.256,70.224"/>
	<path fill="#c7a046" d="M198.727,117.735c-1.82,0.098-3.093,1.421-3.093,3.238   c0,1.82,1.479,3.29,3.291,3.29c0.206,0,0.391-0.021,0.593-0.058c-0.529,2.586-2.326,5.573-5.73,5.573   c-3.281,0-7.25-0.737-7.25-13.356V62.655c0-1.892-1.537-3.437-3.432-3.437c-1.898,0-3.449,1.545-3.449,3.437v55.403   c0,19.322,22.541,19.227,22.541,3.146C202.197,119.151,200.549,117.641,198.727,117.735"/>
	<path fill="#c7a046" d="M88.344,88.424c-2.724,2.672-6.137,4.01-7.426,4.483   c-1.473,0.537-1.381,2.389,0.41,2.225c1.387-0.133,7.094-1.761,11.099-4.944c3.876-3.072,6.116-8.243,6.187-13.111h-6.755   C91.883,79.948,91.15,85.681,88.344,88.424"/>
	<path fill="#c7a046" d="M120.262,88.424c2.732,2.672,6.147,4.01,7.44,4.483   c1.489,0.537,1.395,2.389-0.401,2.225c-1.406-0.133-7.117-1.761-11.122-4.944c-3.869-3.072-6.104-8.243-6.19-13.111h6.766   C116.73,79.948,117.471,85.681,120.262,88.424"/>
	<path fill="#c7a046" d="M104.027,76.709c-0.483,0-0.483,0.011-0.582-0.294   c-0.035-0.302,1.475-0.36,1.904-0.536c3.682-1.168,9.142-3.97,11.012-12.585c0,0,0.901-3.67,3.94-3.074   c3.296,0.654,2.481,4.238,2.481,4.238C120.479,74.004,109.947,76.977,104.027,76.709"/>
	<path fill="#c7a046" d="M99.439,73.654c0.416,0,0.759-0.208,0.812-0.578   c0.025-0.316-0.165-0.617-0.732-0.796c-3.188-0.964-6.113-3.35-7.564-9.412c0,0-0.965-3.361-3.896-2.57   c-2.765,0.75-2.022,3.745-2.022,3.745C88.06,71.334,94.272,73.859,99.439,73.654"/>
	<path fill="#c7a046" d="M197.266,0c-2.731,0-4.939,2.193-4.939,4.936c0,2.73,2.208,4.937,4.939,4.937   c2.729,0,4.932-2.207,4.932-4.937C202.197,2.193,199.994,0,197.266,0 M197.266,9.26c-2.388,0-4.324-1.951-4.324-4.324   c0-2.387,1.937-4.325,4.324-4.325c2.386,0,4.32,1.938,4.32,4.325C201.586,7.309,199.651,9.26,197.266,9.26"/>
	<path fill="#c7a046" d="M199.633,6.646c-0.035-0.949-0.308-1.526-0.866-1.725   c0.751-0.228,1.118-0.741,1.074-1.523c0-1.1-0.736-1.647-2.191-1.647h-2.622v6.277h0.649V5.18h1.973   c0.73-0.028,1.176,0.231,1.275,0.791c0.023,0.127,0.045,0.378,0.069,0.735c0.02,0.725,0.078,1.134,0.217,1.322h0.701V7.999   C199.736,7.958,199.633,7.503,199.633,6.646 M197.6,4.672h-1.923V2.243h1.973c1.056,0,1.606,0.409,1.606,1.183   C199.211,4.255,198.677,4.672,197.6,4.672"/>
</g>

<g id="shiguan">
		<path fill="none" stroke="#C7A045" stroke-width="4.6418" stroke-miterlimit="10" d="M283.93,1569.071h-24.969    c-2.062,0-3.729-1.67-3.729-3.736l0,0c0-2.061,1.668-3.731,3.729-3.731h27.084c2.061,0,3.729,1.671,3.729,3.731l0,0    c0,2.065-1.669,3.736-3.729,3.736h-3.754"/>
		<path fill="none" stroke="#C7A045" stroke-width="4.6418" stroke-miterlimit="10" d="M285.306,1569.071v81.268    c0,7.069-5.735,12.801-12.807,12.801l0,0c-7.063,0-12.802-5.732-12.802-12.801v-81.268"/>
		<path fill="none" stroke="#C7A045" stroke-width="4.6418" stroke-miterlimit="10" d="M272.5,1580.353c3.815,0,7.616,0,11.431,0"/>
		<path fill="none" stroke="#C7A045" stroke-width="4.6418" stroke-miterlimit="10" d="M272.5,1590.255c3.815,0,7.616,0,11.431,0"/>
		<path fill="none" stroke="#C7A045" stroke-width="4.6418" stroke-miterlimit="10" d="M272.5,1600.16c3.815,0,7.616,0,11.431,0"/>
		<path fill="none" stroke="#C7A045" stroke-width="4.6418" stroke-miterlimit="10" d="M272.5,1610.06c3.815,0,7.616,0,11.431,0"/>
		<path fill="none" stroke="#C7A045" stroke-width="4.6418" stroke-miterlimit="10" d="M272.5,1619.962c3.815,0,7.616,0,11.431,0"/>
		<path fill="none" stroke="#C7A045" stroke-width="4.6418" stroke-miterlimit="10" d="M272.5,1629.866c3.815,0,7.616,0,11.431,0"/>
</g>

<g id="niutou">
	<path fill="#C7A045" d="M191.255,2684.201c-43.952,0-79.698-35.756-79.698-79.707c0-43.943,35.746-79.7,79.698-79.7   c43.947,0,79.709,35.757,79.709,79.7C270.964,2648.445,235.202,2684.201,191.255,2684.201 M191.255,2531.145   c-40.441,0-73.351,32.903-73.351,73.35c0,40.454,32.91,73.361,73.351,73.361c40.446,0,73.35-32.907,73.35-73.361   C264.605,2564.048,231.701,2531.145,191.255,2531.145"/>
	<path fill="#C7A045" d="M191.255,2673.872c-38.248,0-69.368-31.121-69.368-69.378c0-38.246,31.12-69.37,69.368-69.37   c38.239,0,69.374,31.124,69.374,69.37C260.628,2642.751,229.494,2673.872,191.255,2673.872 M191.255,2538.049   c-36.639,0-66.443,29.81-66.443,66.445c0,36.643,29.804,66.44,66.443,66.44s66.435-29.797,66.435-66.44   C257.69,2567.859,227.894,2538.049,191.255,2538.049"/>
	<path fill="#C7A045" d="M220.013,2570.361c0,0-6.208-8.386-29.08-8.386c-22.864,0-28.611,8.386-28.611,8.386   c-19.432-9.166-30.536,0.622-30.536,0.622c4.896,18.498,25.482,9.48,25.482,9.48c-6.37,14.3,1.306,29.531,4.085,34.352   c2.769,4.816,8.166,11.021,8.499,13.834c0.791,4.419-1.148,2.345-2.013,9.92c-1.185,10.273,2.653,12.512,2.653,12.512   s5.718,5.7,18.138,5.7c12.422,0,18.471-2.642,22.876-5.906c4.413-3.263,3.748-13.202,2.122-16.32   c-1.62-3.107-2.284-5.295,0.333-8.719c2.604-3.406,5.724-8.852,5.724-8.852c13.229-18.033,5.403-37.147,5.403-37.147   c21.22,9.956,25.639-9.157,25.639-9.157C234.881,2561.809,220.013,2570.361,220.013,2570.361 M214.283,2594.961   c0,5.037-4.854,6.488-7.875,8.204c-3.022,1.72-6.044,2.59-6.945,11.946c-0.919,9.363,3.004,15.682,7.253,22.149   c4.236,6.492,2.416,10.369,2.416,10.369s-2.416-4.17-5.295-2.315c-2.568,1.873,1.367,5.183,1.367,5.183   c-19.813,5.322-27.99-0.433-27.99-0.433s4.085-3.016,1.674-4.459c-2.424-1.437-5.15,1.74-5.15,1.74   c-3.022-3.312,2.273-10.084,6.353-17.419c4.085-7.338,3.627-14.393,2.121-19.848c-1.517-5.479-7.712-7.77-11.797-9.798   c-4.085-2.006-2.11-13.513-1.656-16.399c0.446-2.862,3.916-4.449,3.916-4.449c17.553-9.358,31.768-2.453,36.905,0   C214.73,2581.878,214.283,2589.92,214.283,2594.961"/>
</g>

<g id="denmark">
	<g>
		<rect x="131.136" y="3548.115" fill="none" stroke="#C7A045" stroke-width="4.6418" width="135.949" height="90.637"/>
		<line fill="none" stroke="#C7A045" stroke-width="4.6418" x1="131.142" y1="3526.066" x2="131.142" y2="3753.674"/>
		<line fill="none" stroke="#C7A045" stroke-width="4.6418" x1="120.111" y1="3526.066" x2="120.111" y2="3753.674"/>
		<line fill="none" stroke="#C7A045" stroke-width="4.6418" x1="110.93" y1="3753.674" x2="140.849" y2="3753.674"/>
		<line fill="none" stroke="#C7A045" stroke-width="4.6418" x1="115.917" y1="3526.126" x2="135.862" y2="3526.126"/>
		<polygon fill="none" stroke="#C7A045" stroke-width="4.6418" points="267.084,3583.1 189.05,3583.1 189.05,3548.115     168.531,3548.115 168.531,3583.1 131.142,3583.1 131.142,3602.802 168.531,3602.802 168.531,3638.752 189.05,3638.752     189.05,3602.802 267.084,3602.802   "/>
	</g>
	<g>
		<path fill="#C7A045" d="M140.873,3650.399h3.427c5.162,0,8.667,4.369,8.667,12.808v0.755c0,8.438-3.505,12.807-8.667,12.807    h-3.427V3650.399z M144.451,3674.545c3.505,0,6.025-3.349,6.025-10.583v-0.755c0-7.229-2.635-10.584-6.063-10.584h-1.094v21.922    H144.451z"/>
		<path fill="#C7A045" d="M156.116,3650.399h9.271v2.296h-6.823v9.646h6.183v2.297h-6.183v9.834h6.932v2.297h-9.38V3650.399z"/>
		<path fill="#C7A045" d="M168.385,3650.399h2.455l7.271,19.782v-19.782h2.37v26.369h-2.297l-7.458-20.343v20.343h-2.339V3650.399z"/>
		<path fill="#C7A045" d="M184.269,3650.399h2.714l4.405,13.375l4.449-13.375h2.713v26.369h-2.375v-20.87l-4.708,13.865h-0.151    l-4.708-13.865v20.87h-2.339V3650.399z"/>
		<path fill="#C7A045" d="M206.748,3650.284h2.641l5.572,26.484h-2.483l-1.396-6.817h-6.105l-1.354,6.817h-2.413L206.748,3650.284z     M210.707,3667.728l-2.678-13.261l-2.672,13.261H210.707z"/>
		<path fill="#C7A045" d="M217.657,3650.399h3.655c4.636,0,7.726,2.749,7.726,7.947v0.114c0,3.615-1.584,6.141-4.146,7.27    l4.635,11.038h-2.75l-4.296-10.322c-0.339,0.078-0.715,0.078-1.096,0.078h-1.273v10.244h-2.455V3650.399z M221.351,3664.337    c3.166,0,5.238-1.996,5.238-5.833v-0.122c0-3.988-2.188-5.722-5.356-5.722h-1.121v11.677H221.351z"/>
		<path fill="#C7A045" d="M232.229,3650.399h2.447v13.901l6.329-13.901h2.793l-5.651,11.72l6.213,14.649h-2.715l-5.124-11.943    l-1.845,3.918v8.025h-2.447V3650.399z"/>
	</g>
</g>

<g id="page6_wei">
	<g>
		<defs>
			<path id="SVGID_3_" d="M198.972,4799.157c0,3.935,3.179,7.102,7.095,7.102c3.94,0,7.111-3.167,7.111-7.102     c0-3.909-3.171-7.107-7.111-7.107C202.15,4792.05,198.972,4795.248,198.972,4799.157"/>
		</defs>
		<use xmlns:xlink="http://www.w3.org/1999/xlink" xlink:href="#SVGID_3_" overflow="visible" fill="#C7A045"/>
		<clipPath id="SVGID_4_">
			<use xmlns:xlink="http://www.w3.org/1999/xlink" xlink:href="#SVGID_3_" overflow="visible"/>
		</clipPath>
		<rect x="198.972" y="4792.055" clip-path="url(#SVGID_4_)" fill="#C7A045" width="14.207" height="14.204"/>
	</g>
	<g>
		<defs>
			<path id="SVGID_5_" d="M215.557,4807.243c0,1.99,1.613,3.585,3.607,3.585c1.992,0,3.614-1.595,3.614-3.585     c0-1.999-1.622-3.62-3.614-3.62C217.17,4803.623,215.557,4805.244,215.557,4807.243"/>
		</defs>
		<use xmlns:xlink="http://www.w3.org/1999/xlink" xlink:href="#SVGID_5_" overflow="visible" fill="#C7A045"/>
		<clipPath id="SVGID_6_">
			<use xmlns:xlink="http://www.w3.org/1999/xlink" xlink:href="#SVGID_5_" overflow="visible"/>
		</clipPath>
		<rect x="215.557" y="4803.623" clip-path="url(#SVGID_6_)" fill="#C7A045" width="7.222" height="7.205"/>
	</g>
	<g>
		<defs>
			<path id="SVGID_7_" d="M235.175,4816.256c-3.086,2.443-3.561,6.925-1.105,9.973c2.448,3.087,6.924,3.572,9.999,1.124     c3.067-2.478,3.529-6.95,1.095-10.021c-1.411-1.74-3.467-2.648-5.543-2.648C238.055,4814.684,236.48,4815.19,235.175,4816.256"/>
		</defs>
		<use xmlns:xlink="http://www.w3.org/1999/xlink" xlink:href="#SVGID_7_" overflow="visible" fill="#C7A045"/>
		<clipPath id="SVGID_8_">
			<use xmlns:xlink="http://www.w3.org/1999/xlink" xlink:href="#SVGID_7_" overflow="visible"/>
		</clipPath>
		<rect x="231.615" y="4814.684" clip-path="url(#SVGID_8_)" fill="#C7A045" width="15.983" height="15.117"/>
	</g>
	<g>
		<defs>
			<path id="SVGID_9_" d="M206.822,4815.403c-1.87,0.708-2.828,2.781-2.127,4.654c0.688,1.855,2.777,2.8,4.664,2.11     c1.854-0.709,2.795-2.781,2.113-4.644c-0.555-1.443-1.933-2.35-3.393-2.35C207.66,4815.175,207.234,4815.252,206.822,4815.403"/>
		</defs>
		<use xmlns:xlink="http://www.w3.org/1999/xlink" xlink:href="#SVGID_9_" overflow="visible" fill="#C7A045"/>
		<clipPath id="SVGID_10_">
			<use xmlns:xlink="http://www.w3.org/1999/xlink" xlink:href="#SVGID_9_" overflow="visible"/>
		</clipPath>
		<rect x="203.994" y="4815.175" clip-path="url(#SVGID_10_)" fill="#C7A045" width="8.16" height="7.683"/>
	</g>
	<g>
		<defs>
			<path id="SVGID_11_" d="M215.794,4856.122c-1.48,0.544-2.188,2.188-1.657,3.628c0.558,1.463,2.178,2.211,3.635,1.668     c1.468-0.551,2.194-2.165,1.652-3.633c-0.423-1.131-1.505-1.844-2.647-1.844C216.455,4855.941,216.115,4856.002,215.794,4856.122     "/>
		</defs>
		<use xmlns:xlink="http://www.w3.org/1999/xlink" xlink:href="#SVGID_11_" overflow="visible" fill="#C7A045"/>
		<clipPath id="SVGID_12_">
			<use xmlns:xlink="http://www.w3.org/1999/xlink" xlink:href="#SVGID_11_" overflow="visible"/>
		</clipPath>
		<rect x="213.607" y="4855.941" clip-path="url(#SVGID_12_)" fill="#C7A045" width="6.359" height="6.02"/>
	</g>
	<g>
		<defs>
			<path id="SVGID_13_" d="M184.747,4870.913c-1.526,1.25-1.768,3.518-0.535,5.063c1.251,1.554,3.505,1.797,5.083,0.576     c1.544-1.271,1.798-3.542,0.54-5.073c-0.704-0.898-1.752-1.365-2.807-1.365C186.233,4870.114,185.427,4870.375,184.747,4870.913"/>
		</defs>
		<use xmlns:xlink="http://www.w3.org/1999/xlink" xlink:href="#SVGID_13_" overflow="visible" fill="#C7A045"/>
		<clipPath id="SVGID_14_">
			<use xmlns:xlink="http://www.w3.org/1999/xlink" xlink:href="#SVGID_13_" overflow="visible"/>
		</clipPath>
		<rect x="182.979" y="4870.114" clip-path="url(#SVGID_14_)" fill="#C7A045" width="8.114" height="7.659"/>
	</g>
	<g>
		<defs>
			<path id="SVGID_15_" d="M202.096,4863.437c-1.543,1.239-1.797,3.529-0.553,5.077c1.242,1.547,3.527,1.807,5.065,0.537     c1.56-1.232,1.81-3.512,0.565-5.065c-0.723-0.877-1.785-1.347-2.844-1.347C203.544,4862.639,202.752,4862.897,202.096,4863.437"/>
		</defs>
		<use xmlns:xlink="http://www.w3.org/1999/xlink" xlink:href="#SVGID_15_" overflow="visible" fill="#C7A045"/>
		<clipPath id="SVGID_16_">
			<use xmlns:xlink="http://www.w3.org/1999/xlink" xlink:href="#SVGID_15_" overflow="visible"/>
		</clipPath>
		<rect x="200.298" y="4862.639" clip-path="url(#SVGID_16_)" fill="#C7A045" width="8.119" height="7.682"/>
	</g>
	<g>
		<defs>
			<path id="SVGID_17_" d="M184.774,4818.83c0,3.935,3.194,7.097,7.129,7.097c3.91,0,7.098-3.162,7.098-7.097     c0-3.903-3.188-7.112-7.098-7.112C187.968,4811.718,184.774,4814.927,184.774,4818.83"/>
		</defs>
		<use xmlns:xlink="http://www.w3.org/1999/xlink" xlink:href="#SVGID_17_" overflow="visible" fill="#C7A045"/>
		<clipPath id="SVGID_18_">
			<use xmlns:xlink="http://www.w3.org/1999/xlink" xlink:href="#SVGID_17_" overflow="visible"/>
		</clipPath>
		<rect x="184.774" y="4811.718" clip-path="url(#SVGID_18_)" fill="#C7A045" width="14.227" height="14.209"/>
	</g>
	<g>
		<defs>
			<path id="SVGID_19_" d="M188.141,4803.666c0,2.001,1.61,3.608,3.599,3.608c2.014,0,3.618-1.607,3.618-3.608     c0-2-1.604-3.625-3.618-3.625C189.751,4800.041,188.141,4801.666,188.141,4803.666"/>
		</defs>
		<use xmlns:xlink="http://www.w3.org/1999/xlink" xlink:href="#SVGID_19_" overflow="visible" fill="#C7A045"/>
		<clipPath id="SVGID_20_">
			<use xmlns:xlink="http://www.w3.org/1999/xlink" xlink:href="#SVGID_19_" overflow="visible"/>
		</clipPath>
		<rect x="188.141" y="4800.041" clip-path="url(#SVGID_20_)" fill="#C7A045" width="7.217" height="7.233"/>
	</g>
	<g>
		<defs>
			<path id="SVGID_21_" d="M231.936,4796.25c-3.081,2.454-3.538,6.938-1.098,9.984c2.464,3.065,6.942,3.555,9.993,1.106     c3.058-2.461,3.566-6.933,1.116-9.983c-1.417-1.754-3.481-2.667-5.569-2.667C234.815,4794.69,233.248,4795.198,231.936,4796.25"/>
		</defs>
		<use xmlns:xlink="http://www.w3.org/1999/xlink" xlink:href="#SVGID_21_" overflow="visible" fill="#C7A045"/>
		<clipPath id="SVGID_22_">
			<use xmlns:xlink="http://www.w3.org/1999/xlink" xlink:href="#SVGID_21_" overflow="visible"/>
		</clipPath>
		<rect x="228.398" y="4794.69" clip-path="url(#SVGID_22_)" fill="#C7A045" width="16" height="15.099"/>
	</g>
	<g>
		<defs>
			<path id="SVGID_23_" d="M242.301,4832.038c-3.044,2.435-3.54,6.919-1.098,9.989c2.467,3.061,6.937,3.554,10.01,1.101     c3.043-2.453,3.538-6.925,1.104-10.008c-1.407-1.734-3.477-2.648-5.558-2.648C245.2,4830.472,243.621,4830.979,242.301,4832.038"/>
		</defs>
		<use xmlns:xlink="http://www.w3.org/1999/xlink" xlink:href="#SVGID_23_" overflow="visible" fill="#C7A045"/>
		<clipPath id="SVGID_24_">
			<use xmlns:xlink="http://www.w3.org/1999/xlink" xlink:href="#SVGID_23_" overflow="visible"/>
		</clipPath>
		<rect x="238.761" y="4830.472" clip-path="url(#SVGID_24_)" fill="#C7A045" width="15.99" height="15.109"/>
	</g>
	<g>
		<defs>
			<path id="SVGID_25_" d="M208.01,4872.623c-3.082,2.454-3.569,6.938-1.104,10.009c2.445,3.059,6.906,3.532,10,1.081     c3.043-2.471,3.548-6.942,1.073-9.989c-1.4-1.747-3.466-2.66-5.549-2.66C210.88,4871.063,209.312,4871.572,208.01,4872.623"/>
		</defs>
		<use xmlns:xlink="http://www.w3.org/1999/xlink" xlink:href="#SVGID_25_" overflow="visible" fill="#C7A045"/>
		<clipPath id="SVGID_26_">
			<use xmlns:xlink="http://www.w3.org/1999/xlink" xlink:href="#SVGID_25_" overflow="visible"/>
		</clipPath>
		<rect x="204.441" y="4871.063" clip-path="url(#SVGID_26_)" fill="#C7A045" width="16.014" height="15.101"/>
	</g>
	<g>
		<defs>
			<path id="SVGID_27_" d="M227.236,4872.508c-3.052,2.447-3.544,6.945-1.081,9.998c2.451,3.1,6.924,3.561,9.988,1.105     c3.054-2.454,3.56-6.938,1.124-9.991c-1.417-1.758-3.488-2.667-5.573-2.667C230.125,4870.953,228.557,4871.462,227.236,4872.508"/>
		</defs>
		<use xmlns:xlink="http://www.w3.org/1999/xlink" xlink:href="#SVGID_27_" overflow="visible" fill="#C7A045"/>
		<clipPath id="SVGID_28_">
			<use xmlns:xlink="http://www.w3.org/1999/xlink" xlink:href="#SVGID_27_" overflow="visible"/>
		</clipPath>
		<rect x="223.692" y="4870.953" clip-path="url(#SVGID_28_)" fill="#C7A045" width="16.011" height="15.113"/>
	</g>
	<g>
		<defs>
			<path id="SVGID_29_" d="M225.34,4852.84c-3.059,2.448-3.546,6.927-1.092,9.993c2.451,3.058,6.933,3.558,9.998,1.092     c3.059-2.459,3.54-6.931,1.11-9.99c-1.405-1.746-3.479-2.666-5.565-2.666C228.23,4851.269,226.657,4851.783,225.34,4852.84"/>
		</defs>
		<use xmlns:xlink="http://www.w3.org/1999/xlink" xlink:href="#SVGID_29_" overflow="visible" fill="#C7A045"/>
		<clipPath id="SVGID_30_">
			<use xmlns:xlink="http://www.w3.org/1999/xlink" xlink:href="#SVGID_29_" overflow="visible"/>
		</clipPath>
		<rect x="221.794" y="4851.269" clip-path="url(#SVGID_30_)" fill="#C7A045" width="15.992" height="15.122"/>
	</g>
	<g>
		<defs>
			<path id="SVGID_31_" d="M220.89,4819.266c-1.544,1.257-1.795,3.518-0.547,5.077c1.251,1.547,3.526,1.801,5.081,0.575     c1.543-1.259,1.803-3.544,0.55-5.096c-0.715-0.884-1.766-1.354-2.829-1.354C222.347,4818.469,221.552,4818.729,220.89,4819.266"/>
		</defs>
		<use xmlns:xlink="http://www.w3.org/1999/xlink" xlink:href="#SVGID_31_" overflow="visible" fill="#C7A045"/>
		<clipPath id="SVGID_32_">
			<use xmlns:xlink="http://www.w3.org/1999/xlink" xlink:href="#SVGID_31_" overflow="visible"/>
		</clipPath>
		<rect x="219.095" y="4818.469" clip-path="url(#SVGID_32_)" fill="#C7A045" width="8.132" height="7.675"/>
	</g>
	<g>
		<defs>
			<path id="SVGID_33_" d="M265.71,4842.699c-1.555,1.257-1.769,3.523-0.532,5.077c1.257,1.534,3.527,1.771,5.091,0.514     c1.53-1.252,1.769-3.531,0.52-5.078c-0.718-0.876-1.749-1.328-2.799-1.328C267.187,4841.884,266.383,4842.148,265.71,4842.699"/>
		</defs>
		<use xmlns:xlink="http://www.w3.org/1999/xlink" xlink:href="#SVGID_33_" overflow="visible" fill="#C7A045"/>
		<clipPath id="SVGID_34_">
			<use xmlns:xlink="http://www.w3.org/1999/xlink" xlink:href="#SVGID_33_" overflow="visible"/>
		</clipPath>
		<rect x="263.942" y="4841.884" clip-path="url(#SVGID_34_)" fill="#C7A045" width="8.096" height="7.663"/>
	</g>
	<g>
		<defs>
			<path id="SVGID_35_" d="M243.359,4870.375c-1.526,1.221-1.786,3.505-0.53,5.077c1.248,1.547,3.501,1.8,5.075,0.556     c1.544-1.258,1.788-3.536,0.526-5.09c-0.697-0.883-1.738-1.341-2.797-1.341C244.837,4869.577,244.033,4869.842,243.359,4870.375"/>
		</defs>
		<use xmlns:xlink="http://www.w3.org/1999/xlink" xlink:href="#SVGID_35_" overflow="visible" fill="#C7A045"/>
		<clipPath id="SVGID_36_">
			<use xmlns:xlink="http://www.w3.org/1999/xlink" xlink:href="#SVGID_35_" overflow="visible"/>
		</clipPath>
		<rect x="241.573" y="4869.577" clip-path="url(#SVGID_36_)" fill="#C7A045" width="8.119" height="7.675"/>
	</g>
	<g>
		<defs>
			<path id="SVGID_37_" d="M250.576,4811.457c-1.534,1.258-1.792,3.519-0.544,5.077c1.244,1.547,3.521,1.802,5.077,0.556     c1.551-1.258,1.786-3.518,0.541-5.07c-0.707-0.89-1.76-1.349-2.825-1.349C252.031,4810.671,251.239,4810.926,250.576,4811.457"/>
		</defs>
		<use xmlns:xlink="http://www.w3.org/1999/xlink" xlink:href="#SVGID_37_" overflow="visible" fill="#C7A045"/>
		<clipPath id="SVGID_38_">
			<use xmlns:xlink="http://www.w3.org/1999/xlink" xlink:href="#SVGID_37_" overflow="visible"/>
		</clipPath>
		<rect x="248.784" y="4810.671" clip-path="url(#SVGID_38_)" fill="#C7A045" width="8.111" height="7.665"/>
	</g>
	<g>
		<defs>
			<path id="SVGID_39_" d="M238.286,4853.547c0,2.188,1.763,3.942,3.961,3.942c2.17,0,3.95-1.755,3.95-3.942     c0-2.176-1.78-3.952-3.95-3.952C240.048,4849.595,238.286,4851.371,238.286,4853.547"/>
		</defs>
		<use xmlns:xlink="http://www.w3.org/1999/xlink" xlink:href="#SVGID_39_" overflow="visible" fill="#C7A045"/>
		<clipPath id="SVGID_40_">
			<use xmlns:xlink="http://www.w3.org/1999/xlink" xlink:href="#SVGID_39_" overflow="visible"/>
		</clipPath>
		<rect x="238.286" y="4849.595" clip-path="url(#SVGID_40_)" fill="#C7A045" width="7.911" height="7.895"/>
	</g>
	<g>
		<defs>
			<path id="SVGID_41_" d="M256.372,4861.516c-1.698,1.354-1.981,3.842-0.612,5.541c1.355,1.698,3.825,1.987,5.529,0.609     c1.712-1.364,1.964-3.842,0.622-5.541c-0.77-0.974-1.918-1.482-3.067-1.482C257.976,4860.643,257.103,4860.934,256.372,4861.516"/>
		</defs>
		<use xmlns:xlink="http://www.w3.org/1999/xlink" xlink:href="#SVGID_41_" overflow="visible" fill="#C7A045"/>
		<clipPath id="SVGID_42_">
			<use xmlns:xlink="http://www.w3.org/1999/xlink" xlink:href="#SVGID_41_" overflow="visible"/>
		</clipPath>
		<rect x="254.39" y="4860.643" clip-path="url(#SVGID_42_)" fill="#C7A045" width="8.862" height="8.401"/>
	</g>
	<g>
		<defs>
			<path id="SVGID_43_" d="M243.159,4861.393c-1.023,0.371-1.586,1.537-1.172,2.587c0.405,1.015,1.559,1.523,2.591,1.148     c1.034-0.386,1.568-1.528,1.168-2.58c-0.304-0.778-1.07-1.282-1.879-1.282C243.631,4861.266,243.391,4861.309,243.159,4861.393"/>
		</defs>
		<use xmlns:xlink="http://www.w3.org/1999/xlink" xlink:href="#SVGID_43_" overflow="visible" fill="#C7A045"/>
		<clipPath id="SVGID_44_">
			<use xmlns:xlink="http://www.w3.org/1999/xlink" xlink:href="#SVGID_43_" overflow="visible"/>
		</clipPath>
		<rect x="241.573" y="4861.266" clip-path="url(#SVGID_44_)" fill="#C7A045" width="4.573" height="4.237"/>
	</g>
	<g>
		<defs>
			<path id="SVGID_45_" d="M252.646,4849.947c-1.702,1.364-1.955,3.843-0.597,5.535c1.364,1.698,3.825,1.981,5.538,0.615     c1.697-1.354,1.997-3.867,0.615-5.548c-0.782-0.967-1.927-1.476-3.091-1.476C254.25,4849.074,253.379,4849.354,252.646,4849.947"/>
		</defs>
		<use xmlns:xlink="http://www.w3.org/1999/xlink" xlink:href="#SVGID_45_" overflow="visible" fill="#C7A045"/>
		<clipPath id="SVGID_46_">
			<use xmlns:xlink="http://www.w3.org/1999/xlink" xlink:href="#SVGID_45_" overflow="visible"/>
		</clipPath>
		<rect x="250.691" y="4849.074" clip-path="url(#SVGID_46_)" fill="#C7A045" width="8.894" height="8.39"/>
	</g>
	<g>
		<defs>
			<path id="SVGID_47_" d="M195.394,4871.117c-1.856,0.755-2.757,2.871-2.01,4.709c0.746,1.827,2.867,2.732,4.711,1.981     c1.853-0.748,2.732-2.863,1.986-4.701c-0.553-1.413-1.898-2.262-3.325-2.262C196.306,4870.845,195.834,4870.93,195.394,4871.117"/>
		</defs>
		<use xmlns:xlink="http://www.w3.org/1999/xlink" xlink:href="#SVGID_47_" overflow="visible" fill="#C7A045"/>
		<clipPath id="SVGID_48_">
			<use xmlns:xlink="http://www.w3.org/1999/xlink" xlink:href="#SVGID_47_" overflow="visible"/>
		</clipPath>
		<rect x="192.637" y="4870.845" clip-path="url(#SVGID_48_)" fill="#C7A045" width="8.19" height="7.714"/>
	</g>
	<g>
		<defs>
			<path id="SVGID_49_" d="M189.714,4854.135c-3.623,1.48-5.394,5.632-3.907,9.265c1.48,3.639,5.621,5.405,9.284,3.917     c3.626-1.486,5.376-5.628,3.881-9.271c-1.109-2.757-3.771-4.438-6.594-4.438C191.499,4853.607,190.588,4853.776,189.714,4854.135     "/>
		</defs>
		<use xmlns:xlink="http://www.w3.org/1999/xlink" xlink:href="#SVGID_49_" overflow="visible" fill="#C7A045"/>
		<clipPath id="SVGID_50_">
			<use xmlns:xlink="http://www.w3.org/1999/xlink" xlink:href="#SVGID_49_" overflow="visible"/>
		</clipPath>
		<rect x="184.32" y="4853.607" clip-path="url(#SVGID_50_)" fill="#C7A045" width="16.147" height="15.197"/>
	</g>
	<g>
		<defs>
			<path id="SVGID_51_" d="M173.483,4852.914c-3.641,1.492-5.397,5.62-3.892,9.265c1.453,3.633,5.617,5.392,9.268,3.923     c3.615-1.493,5.376-5.638,3.877-9.291c-1.099-2.749-3.774-4.428-6.584-4.428C175.263,4852.383,174.354,4852.557,173.483,4852.914     "/>
		</defs>
		<use xmlns:xlink="http://www.w3.org/1999/xlink" xlink:href="#SVGID_51_" overflow="visible" fill="#C7A045"/>
		<clipPath id="SVGID_52_">
			<use xmlns:xlink="http://www.w3.org/1999/xlink" xlink:href="#SVGID_51_" overflow="visible"/>
		</clipPath>
		<rect x="168.086" y="4852.383" clip-path="url(#SVGID_52_)" fill="#C7A045" width="16.149" height="15.188"/>
	</g>
	<g>
		<defs>
			<path id="SVGID_53_" d="M167.421,4868.144c-3.63,1.507-5.371,5.64-3.895,9.279c1.465,3.626,5.633,5.384,9.266,3.917     c3.65-1.501,5.387-5.633,3.922-9.292c-1.136-2.762-3.81-4.418-6.624-4.418C169.201,4867.63,168.294,4867.8,167.421,4868.144"/>
		</defs>
		<use xmlns:xlink="http://www.w3.org/1999/xlink" xlink:href="#SVGID_53_" overflow="visible" fill="#C7A045"/>
		<clipPath id="SVGID_54_">
			<use xmlns:xlink="http://www.w3.org/1999/xlink" xlink:href="#SVGID_53_" overflow="visible"/>
		</clipPath>
		<rect x="162.051" y="4867.63" clip-path="url(#SVGID_54_)" fill="#C7A045" width="16.128" height="15.177"/>
	</g>
	<g>
		<defs>
			<path id="SVGID_55_" d="M160.788,4853.271c-1.828,0.748-2.738,2.851-1.97,4.708c0.752,1.83,2.847,2.713,4.708,1.97     c1.846-0.738,2.71-2.847,1.97-4.696c-0.565-1.396-1.917-2.248-3.351-2.248C161.692,4853.005,161.235,4853.089,160.788,4853.271"/>
		</defs>
		<use xmlns:xlink="http://www.w3.org/1999/xlink" xlink:href="#SVGID_55_" overflow="visible" fill="#C7A045"/>
		<clipPath id="SVGID_56_">
			<use xmlns:xlink="http://www.w3.org/1999/xlink" xlink:href="#SVGID_55_" overflow="visible"/>
		</clipPath>
		<rect x="158.05" y="4853.005" clip-path="url(#SVGID_56_)" fill="#C7A045" width="8.187" height="7.688"/>
	</g>
	<g>
		<defs>
			<path id="SVGID_57_" d="M143.173,4865.221c-2.007,0.824-2.982,3.129-2.158,5.154c0.819,2.007,3.14,2.984,5.132,2.163     c2.037-0.822,2.997-3.131,2.175-5.139c-0.623-1.545-2.098-2.477-3.657-2.477C144.167,4864.923,143.659,4865.021,143.173,4865.221     "/>
		</defs>
		<use xmlns:xlink="http://www.w3.org/1999/xlink" xlink:href="#SVGID_57_" overflow="visible" fill="#C7A045"/>
		<clipPath id="SVGID_58_">
			<use xmlns:xlink="http://www.w3.org/1999/xlink" xlink:href="#SVGID_57_" overflow="visible"/>
		</clipPath>
		<rect x="140.19" y="4864.923" clip-path="url(#SVGID_58_)" fill="#C7A045" width="8.953" height="8.437"/>
	</g>
	<g>
		<defs>
			<path id="SVGID_59_" d="M267.979,4832.066c-1.692,1.385-1.964,3.863-0.604,5.562c1.351,1.693,3.825,1.971,5.55,0.604     c1.716-1.354,1.976-3.832,0.61-5.535c-0.781-0.981-1.937-1.488-3.092-1.488C269.578,4831.209,268.708,4831.494,267.979,4832.066"/>
		</defs>
		<use xmlns:xlink="http://www.w3.org/1999/xlink" xlink:href="#SVGID_59_" overflow="visible" fill="#C7A045"/>
		<clipPath id="SVGID_60_">
			<use xmlns:xlink="http://www.w3.org/1999/xlink" xlink:href="#SVGID_59_" overflow="visible"/>
		</clipPath>
		<rect x="266.015" y="4831.209" clip-path="url(#SVGID_60_)" fill="#C7A045" width="8.885" height="8.39"/>
	</g>
	<g>
		<defs>
			<path id="SVGID_61_" d="M265.589,4861.036c-0.848,0.713-1.001,1.965-0.305,2.823c0.687,0.877,1.939,1.027,2.813,0.302     c0.873-0.689,1-1.928,0.301-2.791c-0.403-0.497-0.986-0.752-1.58-0.752C266.388,4860.618,265.953,4860.753,265.589,4861.036"/>
		</defs>
		<use xmlns:xlink="http://www.w3.org/1999/xlink" xlink:href="#SVGID_61_" overflow="visible" fill="#C7A045"/>
		<clipPath id="SVGID_62_">
			<use xmlns:xlink="http://www.w3.org/1999/xlink" xlink:href="#SVGID_61_" overflow="visible"/>
		</clipPath>
		<rect x="264.588" y="4860.618" clip-path="url(#SVGID_62_)" fill="#C7A045" width="4.509" height="4.269"/>
	</g>
	<g>
		<defs>
			<path id="SVGID_63_" d="M256.471,4822.457c-1.546,1.258-1.798,3.53-0.565,5.097c1.249,1.545,3.536,1.793,5.081,0.53     c1.541-1.228,1.813-3.488,0.544-5.077c-0.696-0.887-1.733-1.348-2.79-1.348C257.951,4821.659,257.149,4821.927,256.471,4822.457"/>
		</defs>
		<use xmlns:xlink="http://www.w3.org/1999/xlink" xlink:href="#SVGID_63_" overflow="visible" fill="#C7A045"/>
		<clipPath id="SVGID_64_">
			<use xmlns:xlink="http://www.w3.org/1999/xlink" xlink:href="#SVGID_63_" overflow="visible"/>
		</clipPath>
		<rect x="254.673" y="4821.659" clip-path="url(#SVGID_64_)" fill="#C7A045" width="8.126" height="7.688"/>
	</g>
</g>


<g id="page7_bb">
	<path fill="#C7A045" d="M247.493,5968.236c-2.834-2.75-8.422-1.729-9.344-1.276c-5.849-3.928-18.727-12.438-49.054-12.311h-0.078   h-0.069c-30.339-0.128-43.225,8.383-49.094,12.311c-0.885-0.452-6.488-1.474-9.35,1.276c-18.28,17.859-29.03,93.437,58.461,145.541   v0.03c0.006,0.023,0.018,0,0.049,0c0.024,0,0.024,0.023,0.045,0.023v-0.054C276.556,6061.673,265.794,5986.096,247.493,5968.236    M189.014,6106.495c-80.963-48.486-69.737-114.324-58.09-130.285c5.902-8.041,11.103-1.767,8.961,0.204   c-4.018,3.73,3.404,9.308,7.131,5.065c2.961-3.386,0.807-9.02-1.971-11.352c3.068-2.235,16.767-10.209,43.969-9.895   c27.207-0.314,40.895,7.659,43.961,9.895c-2.786,2.332-4.926,7.966-1.934,11.352c3.675,4.242,11.12-1.335,7.086-5.065   c-2.146-1.971,3.089-8.245,8.96-0.204C258.753,5992.171,269.95,6058.009,189.014,6106.495"/>
	<path fill="#C7A045" d="M168.983,6021.558h-8.839v13.942h9.244c6.558,0,9.018-3.155,9.018-7.3   C178.406,6023.752,176.021,6021.558,168.983,6021.558"/>
	<path fill="#C7A045" d="M205.422,6057.26v-0.684h-6.411v0.684c0,0.44-0.109,0.688-0.294,0.761h7.108   C205.568,6057.948,205.422,6057.7,205.422,6057.26"/>
	<path fill="#C7A045" d="M175.796,6005.921c0-3.566-2.216-5.439-7.051-5.439h-8.601v11.515h8.19   C174.71,6011.996,175.796,6008.836,175.796,6005.921"/>
	<path fill="#C7A045" d="M194.88,6061.188v10.081c-0.058,0.454,0.1,0.648,0.471,0.575h5.57v-3.361   c-0.886,1.028-1.944,1.818-3.158,2.412c-0.907,0.507-1.575,0.507-2.022,0c-0.581-0.713-0.462-1.347,0.386-1.929   c1.089-0.635,2.11-1.37,3.077-2.204h-2.992c-0.634-0.063-0.958-0.449-0.958-1.154c0.07-0.696,0.422-1.084,1.061-1.145h4.606v-0.773   h-4.219c-0.575-0.066-0.901-0.421-0.961-1.057c0.06-0.635,0.386-0.998,0.961-1.063c4.611-0.055,8.099-0.249,10.468-0.576   c0.832-0.066,1.252,0.261,1.252,0.963c0.13,0.773-0.258,1.215-1.157,1.354c-0.067,0-0.351,0.03-0.874,0.077   c-1.402,0.073-2.357,0.104-2.877,0.104v0.973h4.516c0.637,0.061,0.993,0.448,1.068,1.145c-0.075,0.705-0.432,1.092-1.068,1.154   h-3.264c1.416,0.64,2.59,1.377,3.542,2.204c0.655,0.646,0.758,1.253,0.305,1.833c-0.511,0.575-1.118,0.603-1.832,0.096   c-1.139-0.955-2.229-1.698-3.267-2.212v3.161h5.286c0.383,0,0.593-0.146,0.593-0.47v-10.187c0-0.385-0.191-0.567-0.482-0.567   h-13.456C195.067,6060.62,194.88,6060.803,194.88,6061.188"/>
	<path fill="#C7A045" d="M244.069,5982.979c-1.924,3.378-5.812,5.657-9.891,5.657c-3.07,0-5.892-1.301-7.936-3.604   c-2.161-2.489-3.203-5.765-2.954-9.254c0.11-1.298,0.4-2.635,0.869-3.944c-5.521-2.457-16.444-5.986-33.739-5.986h-3.1   c-17.269,0-28.199,3.529-33.709,5.973c0.451,1.323,0.738,2.66,0.847,3.941c0.275,3.493-0.764,6.775-2.918,9.241   c-2.059,2.332-4.897,3.633-7.979,3.633c-4.068,0-7.921-2.279-9.882-5.646c-3.478,7.396-7.056,22.182-3.173,41.305   c4.022,19.862,17.428,48.848,58.349,74.366c40.969-25.55,54.382-54.543,58.4-74.402   C251.133,6005.14,247.559,5990.363,244.069,5982.979 M184.886,6074.437h-7.501c-2.621,0-3.908-1.015-3.842-3.063v-6.729h-1.34   c0.132,3.717-0.92,6.88-3.159,9.515c-0.589,0.762-1.299,0.894-2.121,0.387c-0.637-0.448-0.768-1.066-0.396-1.832   c1.994-2.426,2.946-5.095,2.88-7.983H167.5c-0.641-0.056-1.006-0.525-1.062-1.421c0.056-0.84,0.421-1.287,1.062-1.354h9.504   c0.901-0.068,1.414,0.283,1.539,1.045c0.646-0.29,1.257-0.15,1.825,0.489c0.761,1.033,1.248,1.724,1.438,2.117   c0.392,0.633,0.257,1.225-0.381,1.721c-0.704,0.334-1.279,0.207-1.725-0.374c-0.194-0.326-0.478-0.737-0.868-1.245   c-0.387-0.593-0.666-1.004-0.87-1.246c-0.191,0.123-0.468,0.182-0.864,0.182h-0.752v5.971c0,0.884,0.565,1.325,1.722,1.325h5.284   c1.794,0.212,2.747-0.605,2.88-2.393c0.187-0.701,0.638-1.022,1.341-0.962c0.716,0.193,1.054,0.639,1.054,1.354   C188.506,6073.137,187.261,6074.642,184.886,6074.437 M187.281,6059.181c0.638,0.055,1.007,0.502,1.049,1.318   c-0.042,0.846-0.411,1.306-1.049,1.365h-1.241v5.188c0.19,2.822-0.84,4.158-3.083,4.022c-1.072,0.075-2.015-0.084-2.776-0.459   c-0.768-0.459-1.031-1.003-0.768-1.649c0.388-0.635,1.061-0.9,2.013-0.768c1.352,0.388,1.952,0.194,1.831-0.579v-5.755h-4.612   c-0.84-0.06-1.259-0.52-1.259-1.365c0-0.816,0.419-1.264,1.259-1.318h4.612v-1.354c0.261-0.954,0.961-1.232,2.11-0.857   c0-0.073,0.024-0.141,0.094-0.206c0.066-0.12,0.097-0.314,0.097-0.562c-0.07-0.273-0.257-0.424-0.58-0.497h-14.684   c-0.447,0.073-0.705,0.297-0.792,0.671v0.975h6.264c0.829,0.067,1.27,0.508,1.333,1.347c-0.064,0.822-0.505,1.28-1.333,1.341   h-5.862c-0.771,0-1.249-0.312-1.448-0.966c-1.072,0.134-1.65-0.507-1.719-1.921v-2.013c-0.064-1.481,0.647-2.171,2.106-2.123   h17.495c1.472-0.048,2.17,0.588,2.095,1.923v0.489c0,1.216-0.215,2.074-0.662,2.593c-0.385,0.509-0.965,0.677-1.729,0.474v0.687   H187.281z M170.536,6045.142h-16.627c-2.701,0-4.003-0.321-4.744-0.889c-0.574-0.49-0.988-1.293-0.988-2.672v-47.175   c0-1.382,0.414-2.191,0.988-2.664c0.741-0.574,2.043-0.906,4.744-0.906h16.627c10.255,0,17.546,5.028,17.546,13.225   c0,6.164-2.145,9.712-6.316,11.906c5.498,2.115,9.172,5.995,9.172,12.97C190.938,6038.897,183.649,6045.142,170.536,6045.142    M212.456,6056.595h-4.324v0.665c0.063,0.374-0.103,0.64-0.475,0.761h2.78c1.018,0,1.538,0.617,1.538,1.839v12.462   c0.124,1.482-0.58,2.164-2.128,2.019h-15.932c-1.225,0.146-1.765-0.472-1.638-1.814v-12.666c-0.054-1.294,0.478-1.911,1.638-1.839   h2.699c-0.206,0-0.303-0.254-0.303-0.761v-0.665H192c-0.638-0.085-1.001-0.507-1.062-1.271c0.061-0.761,0.424-1.183,1.062-1.249   h4.312v-0.957c0.066-0.632,0.522-0.997,1.354-1.058c0.824,0.061,1.284,0.426,1.341,1.058v0.957h6.423v-0.957   c0.075-0.632,0.527-0.997,1.35-1.058c0.841,0.061,1.288,0.426,1.352,1.058v0.957h4.324c0.701,0.066,1.081,0.488,1.147,1.249   C213.537,6056.088,213.157,6056.51,212.456,6056.595 M215.398,6045.142h-16.632c-2.692,0-4.01-0.321-4.739-0.889   c-0.583-0.49-0.985-1.293-0.985-2.672v-47.175c0-1.382,0.402-2.191,0.985-2.664c0.729-0.574,2.046-0.906,4.739-0.906h16.632   c10.256,0,17.53,5.028,17.53,13.225c0,6.164-2.136,9.712-6.3,11.906c5.489,2.115,9.178,5.995,9.178,12.97   C235.806,6038.897,228.511,6045.142,215.398,6045.142"/>
	<path fill="#C7A045" d="M220.645,6005.921c0-3.566-2.22-5.439-7.042-5.439h-8.615v11.515h8.205   C219.579,6011.996,220.645,6008.836,220.645,6005.921"/>
	<path fill="#C7A045" d="M213.843,6021.558h-8.855v13.942h9.266c6.564,0,9.006-3.155,9.006-7.3   C223.259,6023.752,220.892,6021.558,213.843,6021.558"/>
</g>

<g id="page8_shape">
	<g>
		<defs>
			<path id="SVGID_1_" d="M98.933,7146.176c0,44.345,35.947,80.295,80.292,80.295c44.34,0,80.297-35.95,80.297-80.295     c0-44.346-35.957-80.295-80.297-80.295C134.88,7065.881,98.933,7101.83,98.933,7146.176"/>
		</defs>
		<clipPath id="SVGID_2_">
			<use xmlns:xlink="http://www.w3.org/1999/xlink" xlink:href="#SVGID_1_" overflow="visible"/>
		</clipPath>
		
			<polygon clip-path="url(#SVGID_2_)" fill="none" stroke="#C7A045" stroke-width="3.7135" stroke-linejoin="bevel" stroke-miterlimit="10" points="    166.875,7173.971 163.786,7170.885 160.701,7167.803 157.606,7164.705 154.518,7164.705 151.432,7161.618 148.347,7158.524     145.257,7158.524 142.169,7158.524 139.081,7158.524 135.993,7161.618 135.993,7164.705 135.993,7167.803 132.904,7170.885     132.904,7173.971 132.904,7177.06 135.993,7180.151 135.993,7183.232 139.081,7186.32 142.169,7189.408 142.169,7201.763     142.169,7204.852 142.169,7211.029 145.257,7214.117 145.257,7217.207 148.347,7214.117 148.347,7211.029 151.432,7207.939     151.432,7204.852 154.518,7201.763 157.606,7198.676 159.153,7198.676 162.242,7195.586 165.331,7192.498 166.875,7192.498     169.959,7189.408 169.959,7186.32 173.045,7183.232 173.045,7180.151 173.045,7177.06 169.959,7173.971   "/>
		
			<polygon clip-path="url(#SVGID_2_)" fill="none" stroke="#C7A045" stroke-width="3.7135" stroke-linejoin="bevel" stroke-miterlimit="10" points="    126.73,7155.439 123.638,7152.359 120.55,7152.359 123.638,7155.439   "/>
		
			<polygon clip-path="url(#SVGID_2_)" fill="none" stroke="#C7A045" stroke-width="3.7135" stroke-linejoin="bevel" stroke-miterlimit="10" points="    120.55,7146.176 120.55,7143.088 123.638,7139.998 125.185,7139.998 128.274,7136.915 132.904,7136.915 135.993,7133.828     135.993,7130.734 139.081,7127.652 142.169,7124.557 142.169,7123.016 143.711,7121.473 146.799,7118.385 149.885,7115.297     151.432,7115.297 154.518,7112.205 156.061,7112.205 159.153,7109.12 162.242,7106.03 165.331,7102.941 162.242,7102.941     160.701,7102.941 157.606,7099.861 148.347,7099.861 145.257,7102.941 135.993,7102.941 132.904,7099.861 135.993,7096.773     139.081,7093.684 142.169,7090.59 145.257,7087.506 148.347,7087.506 149.885,7087.506 152.973,7090.59 154.518,7092.135     156.061,7090.59 157.606,7090.59 157.606,7087.506 154.518,7084.41 151.432,7084.41 148.347,7081.33 145.257,7081.33     142.169,7084.41 139.081,7084.41 135.993,7087.506 134.448,7089.055 131.359,7085.959 128.274,7085.959 125.185,7089.055     123.638,7089.055 120.55,7092.135 119.008,7092.135 115.917,7095.225 112.825,7098.313 111.284,7098.313 108.199,7098.313     105.11,7101.408 105.11,7106.03 105.11,7109.12 108.199,7112.205 108.199,7127.652 105.11,7130.734 105.11,7133.828     108.199,7136.915 111.284,7139.998 111.284,7143.088 114.372,7146.176 114.372,7149.265 117.458,7152.359 120.55,7152.359     120.55,7149.265   "/>
		
			<polygon clip-path="url(#SVGID_2_)" fill="none" stroke="#C7A045" stroke-width="3.7135" stroke-linejoin="bevel" stroke-miterlimit="10" points="    186.946,7075.151 183.857,7072.059 180.77,7072.059 177.681,7072.059 174.593,7072.059 171.504,7072.059 169.959,7073.604     166.875,7073.604 163.786,7073.604 160.701,7073.604 157.606,7073.604 154.518,7073.604 151.432,7076.699 154.518,7076.699     157.606,7076.699 160.701,7079.781 163.786,7079.781 166.875,7082.864 166.875,7085.959 166.875,7089.055 166.875,7092.135     169.959,7095.225 173.045,7095.225 173.045,7093.684 176.136,7090.59 177.681,7090.59 180.77,7090.59 183.857,7087.506     185.402,7087.506 188.488,7084.41 188.488,7081.33 191.58,7078.235 191.58,7075.151 188.488,7075.151   "/>
		
			<path clip-path="url(#SVGID_2_)" fill="none" stroke="#C7A045" stroke-width="3.7135" stroke-linejoin="bevel" stroke-miterlimit="10" d="    M253.34,7115.297v-15.443h-18.531l-3.081-3.08h-3.092l-3.09-3.09l-3.088-3.094h-3.086l-1.551-1.535h-3.081l-3.091,3.08v3.09    l-1.541,1.549v3.08l3.081,3.088l-3.081,3.084h-3.09h-3.086l3.086,3.095v3.085v3.092l-3.086,3.088l-3.087,3.088v3.084l3.087,3.096    h3.086l3.09-3.096v-3.084l3.081-3.088h3.092h3.091l3.086,3.088l3.088,3.084h3.09l3.092,3.096l3.081,3.082l-1.543,1.547h-3.087    h-3.087h-3.097l-1.537,1.547l-3.086-3.094l-3.091-3.082h-3.092l-3.081,3.082h-3.09h-3.086l-3.087,3.094l-3.092,3.087v3.083    l-3.092,3.09v3.088v3.089v3.095l3.092,3.08v3.085l3.092,3.094h3.087h3.086l3.09-3.094h3.081h1.551l3.081,3.094v3.087v3.098v3.082    l3.096,3.086v3.089v3.092l-1.545,1.538v3.091v3.092l3.086,3.078v1.548v3.088l3.088-3.088h1.546l3.087-3.09h1.549v-3.088    l3.081-3.088v-3.081l3.095-3.092v-3.089v-3.086v-3.082l3.086-3.098v-3.087l3.087-3.094v-3.085v-3.08l3.09-3.095v-3.089    l3.086-3.088l3.088-3.09h6.182v-24.701H253.34z M219.373,7106.025v-3.084l3.086-3.088v3.088L219.373,7106.025z M228.636,7121.473    v-3.088l3.092-3.088v3.088l3.081,3.088l-3.081,3.084L228.636,7121.473z"/>
		
			<use xmlns:xlink="http://www.w3.org/1999/xlink" xlink:href="#SVGID_1_" overflow="visible" fill="none" stroke="#C7A045" stroke-width="3.7135" stroke-linejoin="bevel" stroke-miterlimit="10"/>
	</g>
	<g>
		<path opacity="0.63" fill="#FFFFFF" d="M229.179,7137.268c0,16.554-13.42,29.973-29.979,29.973    c-16.554,0-29.975-13.419-29.975-29.973c0-16.555,13.42-29.98,29.975-29.98C215.759,7107.287,229.179,7120.713,229.179,7137.268z"/>
		<path fill="#FFFFFF" d="M173.767,7162.918c12.155,12.155,30.727,13.915,44.779,5.359l43.77,43.634    c3.384,3.379,8.864,3.379,12.233,0c3.386-3.378,3.386-8.854,0-12.231l-43.766-43.635c8.553-14.057,6.795-32.625-5.359-44.778    c-14.266-14.265-37.39-14.265-51.657,0C159.506,7125.529,159.506,7148.654,173.767,7162.918 M220.672,7158.168    c-11.638,11.639-30.513,11.639-42.154,0c-11.637-11.643-11.637-30.51,0-42.16c11.641-11.632,30.517-11.632,42.154,0    C232.313,7127.658,232.313,7146.534,220.672,7158.168"/>
		<path fill="none" stroke="#C8A146" stroke-width="4.6418" stroke-miterlimit="10" d="M218.546,7168.277l43.77,43.634    c3.384,3.379,8.864,3.379,12.233,0c3.386-3.378,3.386-8.854,0-12.231l-43.766-43.635c8.553-14.057,6.795-32.625-5.359-44.778    c-14.266-14.265-37.39-14.265-51.657,0c-14.261,14.263-14.261,37.388,0,51.651    C185.922,7175.073,204.494,7176.833,218.546,7168.277z M178.518,7158.168c-11.637-11.643-11.637-30.51,0-42.16    c11.641-11.632,30.517-11.632,42.154,0c11.641,11.65,11.641,30.526,0,42.16C209.035,7169.807,190.159,7169.807,178.518,7158.168z"/>
		<rect x="161.082" y="7098.58" fill="none" width="117.997" height="117.857"/>
	</g>
</g>

<g id="page9_shape">
	<path fill="#C7A045" d="M195.208,8190.837c1.155,0,2.088,0.942,2.088,2.091v23.996c0,1.162-0.933,2.104-2.088,2.104   c-1.157,0-2.103-0.941-2.103-2.104v-23.984C193.107,8191.779,194.051,8190.837,195.208,8190.837 M195.208,8187.289   c-3.122,0-5.645,2.521-5.654,5.639v23.996c0,3.117,2.532,5.65,5.654,5.65c3.113,0,5.643-2.533,5.643-5.65v-23.996   C200.851,8189.811,198.322,8187.289,195.208,8187.289"/>
	<path fill="#C7A045" d="M170.492,8213.43c0.556,0,1.083,0.217,1.478,0.617l16.968,16.959c0.816,0.822,0.816,2.15,0.007,2.963   c-0.399,0.397-0.929,0.617-1.491,0.617c-0.559,0-1.082-0.22-1.477-0.613l-16.975-16.976c-0.39-0.394-0.604-0.913-0.608-1.471   c0-0.562,0.218-1.087,0.617-1.486C169.407,8213.646,169.933,8213.43,170.492,8213.43 M170.492,8209.875   c-1.445,0-2.892,0.557-3.996,1.657c-2.203,2.206-2.203,5.784,0,7.978l16.969,16.972c1.103,1.108,2.545,1.657,3.989,1.657   c1.445,0,2.889-0.549,3.997-1.657c2.203-2.212,2.203-5.776,0-7.981l-16.969-16.968   C173.381,8210.432,171.933,8209.875,170.492,8209.875"/>
	<path fill="#C7A045" d="M219.917,8213.43c0.561,0,1.085,0.217,1.481,0.617c0.397,0.398,0.614,0.918,0.614,1.479   c-0.003,0.552-0.217,1.077-0.614,1.471l-16.968,16.976c-0.392,0.394-0.921,0.613-1.483,0.613c-0.556,0-1.084-0.22-1.478-0.613   c-0.818-0.816-0.818-2.145-0.003-2.967l16.969-16.959C218.832,8213.646,219.359,8213.43,219.917,8213.43 M219.917,8209.875   c-1.449,0-2.89,0.557-3.992,1.657l-16.967,16.968c-2.208,2.205-2.208,5.774,0,7.981c1.101,1.101,2.545,1.657,3.99,1.657   c1.448,0,2.892-0.557,3.996-1.657l16.962-16.972c2.21-2.193,2.21-5.776,0-7.978   C222.805,8210.432,221.361,8209.875,219.917,8209.875"/>
	<path fill="#C7A045" d="M170.492,8233.296c0.556,0,1.079,0.218,1.478,0.617l16.968,16.966c0.396,0.398,0.614,0.925,0.614,1.487   c0,0.556-0.218,1.081-0.607,1.473c-0.399,0.396-0.929,0.618-1.491,0.618c-0.559,0-1.082-0.218-1.477-0.618l-16.97-16.958   c-0.393-0.399-0.613-0.924-0.613-1.488c0-0.555,0.218-1.079,0.62-1.479C169.407,8233.514,169.933,8233.296,170.492,8233.296    M170.492,8229.748c-1.445,0-2.892,0.551-3.996,1.658c-2.203,2.199-2.203,5.775,0,7.984l16.969,16.964   c1.103,1.103,2.545,1.649,3.989,1.649c1.445,0,2.889-0.547,3.997-1.649c2.203-2.204,2.203-5.778,0-7.983l-16.969-16.965   C173.381,8230.299,171.933,8229.748,170.492,8229.748"/>
	<path fill="#C7A045" d="M219.917,8233.303c0.561,0,1.087,0.217,1.482,0.615c0.396,0.396,0.61,0.92,0.613,1.475   c0,0.557-0.217,1.089-0.614,1.488l-16.97,16.958c-0.393,0.4-0.919,0.618-1.481,0.618c-0.556,0-1.084-0.218-1.481-0.618   c-0.396-0.396-0.614-0.917-0.614-1.473c0-0.563,0.218-1.089,0.614-1.487l16.965-16.961   C218.83,8233.52,219.354,8233.303,219.917,8233.303 M219.917,8229.756c-1.449,0-2.89,0.55-3.992,1.65l-16.967,16.965   c-2.208,2.205-2.208,5.779,0,7.983c1.101,1.103,2.545,1.657,3.99,1.657c1.448,0,2.892-0.555,3.996-1.657l16.962-16.964   c2.21-2.209,2.21-5.785,0-7.984C222.805,8230.306,221.361,8229.756,219.917,8229.756"/>
	<path fill="#C7A045" d="M170.492,8253.169c0.559,0,1.085,0.218,1.478,0.61l16.968,16.974c0.819,0.813,0.819,2.144,0.007,2.962   c-0.399,0.396-0.929,0.615-1.491,0.615c-0.559,0-1.082-0.219-1.477-0.615l-16.97-16.972c-0.396-0.399-0.613-0.921-0.613-1.481   c0-0.563,0.221-1.082,0.613-1.482C169.4,8253.387,169.93,8253.169,170.492,8253.169 M170.492,8249.621   c-1.445,0-2.892,0.545-3.996,1.643c-2.203,2.214-2.203,5.786,0,7.986l16.969,16.977c1.103,1.102,2.545,1.651,3.989,1.651   c1.445,0,2.889-0.55,3.997-1.651c2.203-2.211,2.203-5.789,0-7.989l-16.969-16.974   C173.381,8250.166,171.933,8249.621,170.492,8249.621"/>
	<path fill="#C7A045" d="M219.917,8253.169c0.561,0,1.087,0.218,1.481,0.61c0.397,0.4,0.614,0.92,0.614,1.486   c-0.003,0.557-0.217,1.078-0.614,1.478l-16.968,16.972c-0.392,0.396-0.921,0.615-1.483,0.615c-0.556,0-1.084-0.219-1.481-0.615   c-0.396-0.4-0.614-0.921-0.614-1.486c0-0.557,0.218-1.076,0.617-1.476l16.962-16.974   C218.83,8253.387,219.354,8253.169,219.917,8253.169 M219.917,8249.621c-1.449,0-2.89,0.545-3.992,1.643l-16.967,16.974   c-2.208,2.2-2.208,5.778,0,7.989c1.101,1.102,2.545,1.651,3.99,1.651c1.448,0,2.892-0.55,3.996-1.651l16.962-16.977   c2.21-2.2,2.21-5.772,0-7.986C222.805,8250.166,221.361,8249.621,219.917,8249.621"/>
	<path fill="#C7A045" d="M170.492,8273.042c0.556,0,1.083,0.212,1.478,0.61l16.965,16.96c0.819,0.823,0.816,2.152,0.01,2.969   c-0.403,0.397-0.929,0.616-1.491,0.616c-0.556,0-1.078-0.219-1.477-0.611l-16.963-16.965c-0.818-0.816-0.818-2.146-0.002-2.969   C169.404,8273.261,169.933,8273.042,170.492,8273.042 M170.492,8269.49c-1.445,0-2.892,0.547-3.996,1.654   c-2.203,2.207-2.203,5.771,0,7.984l16.969,16.968c1.103,1.106,2.545,1.654,3.989,1.654c1.445,0,2.889-0.548,3.997-1.654   c2.203-2.208,2.203-5.781,0-7.985l-16.969-16.967C173.381,8270.037,171.933,8269.49,170.492,8269.49"/>
	<path fill="#C7A045" d="M219.917,8273.042c0.559,0,1.081,0.212,1.481,0.618c0.397,0.393,0.614,0.916,0.614,1.475   c0,0.563-0.219,1.082-0.614,1.48l-16.97,16.971c-0.393,0.393-0.919,0.611-1.481,0.611c-0.556,0-1.084-0.219-1.478-0.611   c-0.818-0.821-0.818-2.15-0.003-2.961l16.969-16.973C218.832,8273.261,219.359,8273.042,219.917,8273.042 M219.917,8269.49   c-1.449,0-2.89,0.547-3.992,1.654l-16.967,16.967c-2.208,2.204-2.208,5.777,0,7.985c1.101,1.106,2.545,1.654,3.99,1.654   c1.448,0,2.892-0.548,3.996-1.654l16.962-16.968c2.21-2.213,2.21-5.777,0-7.984C222.805,8270.037,221.361,8269.49,219.917,8269.49"/>
	<path fill="#C7A045" d="M170.492,8292.91c0.556,0,1.083,0.217,1.478,0.615l16.968,16.966c0.819,0.815,0.819,2.146,0.007,2.956   c-0.399,0.398-0.929,0.617-1.491,0.617c-0.559,0-1.082-0.219-1.477-0.61l-16.97-16.966c-0.393-0.398-0.613-0.925-0.613-1.488   c0-0.557,0.218-1.08,0.617-1.475C169.404,8293.127,169.933,8292.91,170.492,8292.91 M170.492,8289.354   c-1.445,0-2.892,0.558-3.996,1.655c-2.203,2.203-2.203,5.779,0,7.979l16.969,16.973c1.103,1.104,2.545,1.654,3.989,1.654   c1.445,0,2.889-0.55,3.997-1.654c2.203-2.2,2.203-5.779,0-7.978l-16.969-16.975   C173.381,8289.912,171.933,8289.354,170.492,8289.354"/>
	<path fill="#C7A045" d="M219.917,8292.91c0.559,0,1.081,0.217,1.482,0.615c0.396,0.4,0.61,0.918,0.613,1.475   c0,0.563-0.217,1.09-0.614,1.488l-16.97,16.971c-0.393,0.387-0.919,0.605-1.481,0.605c-0.556,0-1.084-0.219-1.481-0.61   c-0.396-0.394-0.614-0.927-0.614-1.481c0-0.557,0.218-1.087,0.614-1.481l16.969-16.966   C218.832,8293.127,219.359,8292.91,219.917,8292.91 M219.917,8289.354c-1.449,0-2.89,0.558-3.992,1.655l-16.967,16.975   c-2.208,2.198-2.208,5.777,0,7.978c1.101,1.104,2.545,1.654,3.99,1.654c1.448,0,2.892-0.55,3.996-1.654l16.962-16.973   c2.21-2.2,2.21-5.776,0-7.979C222.805,8289.912,221.361,8289.354,219.917,8289.354"/>
	<path fill="#C7A045" d="M170.492,8312.784c0.556,0,1.083,0.215,1.478,0.615l16.968,16.96c0.816,0.822,0.819,2.145,0,2.96   c-0.399,0.399-0.924,0.618-1.484,0.618c-0.556,0-1.078-0.219-1.477-0.618l-16.97-16.972c-0.393-0.386-0.613-0.918-0.613-1.473   c0-0.559,0.218-1.09,0.617-1.484C169.404,8312.999,169.933,8312.784,170.492,8312.784 M170.492,8309.229   c-1.445,0-2.892,0.555-3.996,1.657c-2.203,2.2-2.203,5.776,0,7.978l16.969,16.972c1.103,1.097,2.545,1.655,3.989,1.655   c1.445,0,2.889-0.559,3.997-1.655c2.203-2.206,2.203-5.778,0-7.985l-16.969-16.964   C173.381,8309.783,171.933,8309.229,170.492,8309.229"/>
	<path fill="#C7A045" d="M219.917,8312.784c0.561,0,1.085,0.215,1.482,0.615c0.396,0.394,0.61,0.917,0.613,1.476   c0,0.555-0.217,1.081-0.614,1.48l-16.973,16.964c-0.394,0.399-0.919,0.618-1.478,0.618c-0.556,0-1.083-0.219-1.484-0.618   c-0.393-0.399-0.611-0.917-0.611-1.474s0.218-1.086,0.614-1.486l16.965-16.96C218.832,8312.999,219.359,8312.784,219.917,8312.784    M219.917,8309.229c-1.449,0-2.89,0.555-3.992,1.657l-16.967,16.964c-2.208,2.207-2.208,5.779,0,7.979   c1.101,1.104,2.545,1.662,3.99,1.662c1.448,0,2.892-0.559,3.996-1.662l16.962-16.965c2.21-2.201,2.21-5.777,0-7.978   C222.805,8309.783,221.361,8309.229,219.917,8309.229"/>
	<path fill="#C7A045" d="M257.45,8284.182c0.485,0,0.875,0.398,0.875,0.883v18.832c0,0.484-0.39,0.885-0.875,0.885   c-0.489,0-0.889-0.4-0.889-0.885v-18.82C256.561,8284.575,256.953,8284.182,257.45,8284.182 M257.45,8280.635   c-2.449,0-4.43,1.977-4.438,4.43v18.832c0,2.443,1.989,4.43,4.438,4.43c2.442,0,4.429-1.986,4.429-4.43v-18.832   C261.878,8282.611,259.892,8280.635,257.45,8280.635"/>
	<path fill="#C7A045" d="M238.048,8301.916c0.166,0,0.406,0.041,0.621,0.254l13.317,13.319c0.342,0.341,0.342,0.901,0.007,1.239   c-0.219,0.221-0.463,0.262-0.629,0.262c-0.167,0-0.407-0.041-0.619-0.254l-13.324-13.334c-0.21-0.206-0.252-0.443-0.252-0.605   c0-0.169,0.042-0.41,0.26-0.627C237.642,8301.957,237.883,8301.916,238.048,8301.916 M238.048,8298.36   c-1.135,0-2.267,0.437-3.134,1.302c-1.728,1.733-1.728,4.537,0,6.259l13.319,13.328c0.864,0.86,1.997,1.294,3.131,1.294   c1.133,0,2.266-0.434,3.135-1.294c1.731-1.74,1.731-4.545,0-6.272l-13.315-13.314   C240.316,8298.797,239.183,8298.36,238.048,8298.36"/>
	<path fill="#C7A045" d="M276.84,8301.916c0.166,0,0.407,0.049,0.626,0.26c0.21,0.211,0.257,0.452,0.257,0.621   c0,0.158-0.047,0.399-0.261,0.617l-13.314,13.322c-0.216,0.213-0.456,0.254-0.625,0.254c-0.165,0-0.409-0.041-0.618-0.254   c-0.343-0.346-0.343-0.906-0.004-1.247l13.316-13.319C276.429,8301.965,276.673,8301.916,276.84,8301.916 M276.84,8298.36   c-1.133,0-2.269,0.437-3.134,1.302l-13.317,13.314c-1.73,1.728-1.73,4.532,0,6.268c0.867,0.865,1.999,1.299,3.134,1.299   c1.139,0,2.271-0.434,3.136-1.299l13.317-13.323c1.729-1.722,1.729-4.525,0-6.259C279.109,8298.797,277.976,8298.36,276.84,8298.36   "/>
	<path fill="#C7A045" d="M238.048,8317.509c0.164,0,0.406,0.041,0.621,0.261l13.317,13.316c0.342,0.341,0.342,0.898,0.004,1.236   c-0.216,0.213-0.46,0.261-0.626,0.261c-0.167,0-0.407-0.044-0.619-0.255l-13.319-13.314c-0.211-0.211-0.257-0.459-0.257-0.619   c0-0.174,0.046-0.414,0.26-0.632C237.642,8317.55,237.883,8317.509,238.048,8317.509 M238.048,8313.955   c-1.135,0-2.267,0.435-3.134,1.303c-1.728,1.732-1.728,4.535,0,6.265l13.319,13.314c0.864,0.864,1.997,1.302,3.131,1.302   c1.133,0,2.266-0.438,3.135-1.302c1.731-1.727,1.731-4.532,0-6.267l-13.315-13.313   C240.316,8314.39,239.183,8313.955,238.048,8313.955"/>
	<path fill="#C7A045" d="M276.84,8317.509c0.166,0,0.41,0.048,0.626,0.265c0.21,0.207,0.257,0.447,0.257,0.621   c0,0.164-0.047,0.408-0.261,0.619l-13.319,13.314c-0.211,0.219-0.451,0.255-0.62,0.255c-0.165,0-0.409-0.036-0.623-0.255   c-0.213-0.217-0.253-0.457-0.253-0.622c0-0.161,0.04-0.405,0.254-0.62l13.314-13.313   C276.429,8317.557,276.673,8317.509,276.84,8317.509 M276.84,8313.962c-1.133,0-2.269,0.428-3.134,1.293l-13.317,13.315   c-1.73,1.734-1.73,4.54,0,6.271c0.867,0.859,1.999,1.297,3.134,1.297c1.139,0,2.271-0.438,3.136-1.297l13.317-13.319   c1.729-1.729,1.729-4.54,0-6.268C279.109,8314.39,277.976,8313.962,276.84,8313.962"/>
	<path fill="#C7A045" d="M238.048,8333.104c0.166,0,0.412,0.048,0.621,0.254l13.321,13.318c0.343,0.348,0.338,0.908,0.003,1.24   c-0.219,0.227-0.463,0.268-0.629,0.268c-0.167,0-0.407-0.041-0.619-0.262l-13.322-13.32c-0.208-0.211-0.254-0.455-0.254-0.617   c0-0.17,0.046-0.408,0.254-0.623C237.639,8333.151,237.883,8333.104,238.048,8333.104 M238.048,8329.555   c-1.135,0-2.267,0.43-3.134,1.293c-1.728,1.735-1.728,4.54,0,6.27l13.319,13.318c0.864,0.865,1.997,1.295,3.131,1.295   c1.133,0,2.266-0.43,3.135-1.295c1.731-1.732,1.731-4.544,0-6.273l-13.315-13.314   C240.316,8329.984,239.183,8329.555,238.048,8329.555"/>
	<path fill="#C7A045" d="M276.84,8333.104c0.166,0,0.41,0.048,0.626,0.254c0.21,0.219,0.257,0.457,0.257,0.627   c0,0.162-0.047,0.398-0.261,0.617l-13.314,13.32c-0.216,0.221-0.456,0.262-0.625,0.262c-0.165,0-0.409-0.041-0.622-0.262   c-0.214-0.217-0.254-0.459-0.254-0.623c0-0.163,0.04-0.403,0.254-0.623l13.314-13.314   C276.429,8333.151,276.673,8333.104,276.84,8333.104 M276.84,8329.555c-1.133,0-2.269,0.43-3.134,1.293l-13.317,13.322   c-1.73,1.722-1.73,4.533,0,6.266c0.867,0.865,1.999,1.295,3.134,1.295c1.139,0,2.271-0.43,3.136-1.295l13.317-13.318   c1.729-1.729,1.729-4.534,0-6.27C279.109,8329.984,277.976,8329.555,276.84,8329.555"/>
	<path fill="#C7A045" d="M238.048,8348.697c0.166,0,0.406,0.047,0.621,0.266l13.314,13.311c0.35,0.348,0.35,0.898,0.007,1.244   c-0.216,0.217-0.46,0.259-0.626,0.259c-0.167,0-0.407-0.042-0.619-0.259l-13.316-13.31c-0.345-0.353-0.345-0.907-0.003-1.251   C237.642,8348.744,237.883,8348.697,238.048,8348.697 M238.048,8345.148c-1.135,0-2.267,0.43-3.134,1.301   c-1.728,1.727-1.728,4.531,0,6.26l13.319,13.321c0.864,0.864,1.997,1.293,3.131,1.293c1.133,0,2.266-0.429,3.135-1.293   c1.731-1.74,1.731-4.532,0-6.272l-13.315-13.309C240.316,8345.578,239.183,8345.148,238.048,8345.148"/>
	<path fill="#C7A045" d="M276.84,8348.697c0.166,0,0.407,0.047,0.626,0.266c0.21,0.211,0.257,0.445,0.257,0.617   c0,0.168-0.047,0.41-0.261,0.62l-13.319,13.317c-0.211,0.217-0.451,0.259-0.62,0.259c-0.165,0-0.409-0.042-0.618-0.253   c-0.351-0.352-0.353-0.902-0.004-1.25l13.319-13.316C276.431,8348.744,276.673,8348.697,276.84,8348.697 M276.84,8345.148   c-1.133,0-2.269,0.43-3.134,1.301l-13.317,13.313c-1.73,1.736-1.73,4.528,0,6.269c0.867,0.864,1.999,1.293,3.134,1.293   c1.139,0,2.271-0.429,3.136-1.293l13.317-13.321c1.729-1.729,1.729-4.533,0-6.26   C279.109,8345.578,277.976,8345.148,276.84,8345.148"/>
	<path fill="#C7A045" d="M238.048,8364.29c0.166,0,0.406,0.048,0.621,0.268l13.317,13.308c0.342,0.346,0.342,0.906,0.004,1.244   c-0.216,0.219-0.46,0.26-0.626,0.26c-0.167,0-0.407-0.041-0.619-0.26l-13.322-13.314c-0.208-0.211-0.254-0.455-0.254-0.625   c0-0.166,0.046-0.406,0.257-0.612C237.642,8364.338,237.883,8364.29,238.048,8364.29 M238.048,8360.744   c-1.135,0-2.267,0.434-3.134,1.298c-1.728,1.728-1.728,4.532,0,6.261l13.319,13.323c0.864,0.86,1.997,1.293,3.131,1.293   c1.133,0,2.266-0.433,3.135-1.293c1.731-1.73,1.731-4.536,0-6.272l-13.315-13.312   C240.316,8361.178,239.183,8360.744,238.048,8360.744"/>
	<path fill="#C7A045" d="M276.84,8364.29c0.166,0,0.407,0.048,0.626,0.268c0.21,0.209,0.257,0.446,0.257,0.612   s-0.047,0.414-0.261,0.625l-13.319,13.314c-0.211,0.219-0.451,0.26-0.62,0.26c-0.165,0-0.409-0.041-0.622-0.26   c-0.214-0.209-0.254-0.453-0.254-0.617c0-0.168,0.04-0.41,0.254-0.627l13.319-13.308   C276.431,8364.338,276.673,8364.29,276.84,8364.29 M276.84,8360.744c-1.133,0-2.269,0.434-3.134,1.298l-13.317,13.312   c-1.73,1.736-1.73,4.542,0,6.272c0.867,0.86,1.999,1.293,3.134,1.293c1.139,0,2.271-0.433,3.136-1.293l13.317-13.323   c1.729-1.729,1.729-4.533,0-6.261C279.109,8361.178,277.976,8360.744,276.84,8360.744"/>
	<path fill="#C7A045" d="M238.048,8379.883c0.166,0,0.406,0.049,0.621,0.267l13.314,13.308c0.345,0.347,0.345,0.908,0.007,1.246   c-0.22,0.218-0.46,0.26-0.626,0.26c-0.164,0-0.405-0.042-0.619-0.26l-13.322-13.32c-0.208-0.205-0.254-0.447-0.254-0.615   c0-0.165,0.046-0.412,0.257-0.618C237.642,8379.932,237.883,8379.883,238.048,8379.883 M238.048,8376.336   c-1.135,0-2.267,0.434-3.134,1.301c-1.728,1.729-1.728,4.531,0,6.259l13.319,13.322c0.864,0.863,1.997,1.292,3.131,1.292   c1.133,0,2.266-0.429,3.135-1.292c1.731-1.729,1.731-4.532,0-6.267l-13.315-13.314   C240.316,8376.77,239.183,8376.336,238.048,8376.336"/>
	<path fill="#C7A045" d="M276.84,8379.891c0.166,0,0.407,0.041,0.626,0.259c0.21,0.21,0.257,0.453,0.257,0.618   c0,0.168-0.047,0.41-0.261,0.615l-13.319,13.32c-0.211,0.218-0.456,0.26-0.62,0.26c-0.165,0-0.405-0.042-0.623-0.26   c-0.213-0.217-0.253-0.455-0.253-0.616c0-0.169,0.04-0.41,0.254-0.62l13.316-13.317   C276.429,8379.932,276.673,8379.891,276.84,8379.891 M276.84,8376.341c-1.133,0-2.269,0.429-3.134,1.296l-13.317,13.314   c-1.73,1.734-1.73,4.537,0,6.267c0.867,0.863,1.999,1.292,3.134,1.292c1.139,0,2.271-0.429,3.136-1.292l13.317-13.322   c1.729-1.728,1.729-4.53,0-6.259C279.109,8376.77,277.976,8376.341,276.84,8376.341"/>
	<path fill="#C7A045" d="M195.208,8344.725c1.155,0,2.088,0.936,2.088,2.091v122.64c0,1.155-0.933,2.094-2.088,2.094   c-1.157,0-2.103-0.938-2.103-2.094v-122.626C193.107,8345.668,194.051,8344.725,195.208,8344.725 M195.208,8341.178   c-3.122,0-5.645,2.513-5.654,5.638v122.64c0,3.119,2.532,5.646,5.654,5.646c3.113,0,5.643-2.527,5.643-5.646v-122.64   C200.851,8343.69,198.322,8341.178,195.208,8341.178"/>
	<path fill="#C7A045" d="M257.1,8406.617c1.154,0,2.088,0.937,2.088,2.092v60.746c0,1.155-0.934,2.094-2.088,2.094   c-1.157,0-2.104-0.938-2.104-2.094v-60.735C255,8407.561,255.943,8406.617,257.1,8406.617 M257.1,8403.068   c-3.123,0-5.645,2.514-5.654,5.641v60.746c0,3.119,2.531,5.646,5.654,5.646c3.112,0,5.644-2.527,5.644-5.646v-60.746   C262.744,8405.582,260.212,8403.068,257.1,8403.068"/>
	<g>
		<path fill="#C7A045" d="M103.669,8356.674c-0.568-0.217-1.203,0.074-1.415,0.641c-0.217,0.568,0.073,1.203,0.642,1.42    c0.567,0.213,1.203-0.077,1.417-0.646C104.524,8357.52,104.24,8356.886,103.669,8356.674"/>
		<path fill="#C7A045" d="M103.675,8350.383c-0.569-0.213-1.2,0.074-1.415,0.64c-0.214,0.568,0.072,1.204,0.644,1.421    c0.565,0.213,1.2-0.08,1.415-0.641C104.529,8351.234,104.243,8350.596,103.675,8350.383"/>
		<path fill="#C7A045" d="M109.365,8347.804c-0.566-0.214-1.2,0.071-1.415,0.638c-0.214,0.57,0.076,1.21,0.644,1.414    c0.568,0.219,1.203-0.071,1.415-0.638C110.223,8348.645,109.936,8348.019,109.365,8347.804"/>
		<path fill="none" stroke="#C7A045" stroke-width="3.0946" stroke-linejoin="bevel" stroke-miterlimit="10" d="M124.439,8347.094    c-2.651-5.85-10.816-7.863-18.231-4.502c-1.515,0.688-2.884,1.547-4.081,2.527c-4.645,3.82-6.66,9.5-4.551,14.153    c2.654,5.853,16.346,13.733,21.386,11.448C123.394,8368.713,127.091,8352.944,124.439,8347.094z"/>
		<polyline fill="none" stroke="#C7A045" stroke-width="3.0946" stroke-linejoin="bevel" stroke-miterlimit="10" points="    111.329,8341.109 113.101,8333.35 109.253,8338.307 104.86,8333.428 104.013,8338.537 98.429,8336.748 104.425,8343.398   "/>
	</g>
	<g>
		<path fill="none" stroke="#C7A045" stroke-width="3.7135" stroke-linejoin="bevel" stroke-miterlimit="10" d="M156.639,8421.395    c8.163-7.561,8.646-20.309,1.082-28.467c-7.569-8.16-20.31-8.644-28.471-1.076c-8.159,7.561-8.643,20.308-1.079,28.467    C135.736,8428.477,148.482,8428.963,156.639,8421.395z"/>
		<path fill="none" stroke="#C7A045" stroke-width="3.7135" stroke-linejoin="bevel" stroke-miterlimit="10" d="M171.263,8386.846    c0,0-6.441-2.603-14.491,5.127"/>
		<path fill="none" stroke="#C7A045" stroke-width="3.7135" stroke-linejoin="bevel" stroke-miterlimit="10" d="M165.865,8383.54    c0,0,4.977-6.932-9.976-13.279c0,0-8.582,10.032,1.505,17.008"/>
		<path fill="none" stroke="#C7A045" stroke-width="3.7135" stroke-linejoin="bevel" stroke-miterlimit="10" d="M160.806,8397.29    c0,0-8.754,21.548-29.328,25.892"/>
	</g>
	<g>
		<path fill="none" stroke="#C7A045" stroke-width="2.4756" stroke-linejoin="bevel" stroke-miterlimit="10" d="M139.616,8304.007    c0-2.333-1.889-4.217-4.219-4.217c-2.327,0-4.217,1.884-4.217,4.217c0,2.325,1.89,4.22,4.217,4.22    C137.727,8308.227,139.616,8306.332,139.616,8304.007z"/>
		<path fill="none" stroke="#C7A045" stroke-width="2.4756" stroke-linejoin="bevel" stroke-miterlimit="10" d="M129.419,8304.007    c0-2.333-1.886-4.217-4.215-4.217c-2.331,0-4.219,1.884-4.219,4.217c0,2.325,1.889,4.22,4.219,4.22    C127.534,8308.227,129.419,8306.332,129.419,8304.007z"/>
		<path fill="none" stroke="#C7A045" stroke-width="2.4756" stroke-linejoin="bevel" stroke-miterlimit="10" d="M125.563,8299.801    c0.363-8.413,6.186-10.446,6.186-10.446s-1.351,4.251,2.554,10.577"/>
		<path fill="none" stroke="#C7A045" stroke-width="2.4756" stroke-linejoin="bevel" stroke-miterlimit="10" d="M132.822,8289.826    c0,0,6.519-1.135,8.474,2.721c1.951,3.842-0.671,4.811-3.711,4.111C135.188,8296.1,132.822,8289.826,132.822,8289.826z"/>
	</g>
</g>

<g id="page10_shape">
	<path fill="#C7A045" d="M189.008,9581.797c-43.992,0-79.782-35.795-79.782-79.771c0-43.992,35.79-79.79,79.782-79.79   c43.996,0,79.782,35.798,79.782,79.79C268.79,9546.002,233.003,9581.797,189.008,9581.797 M189.008,9428.594   c-40.483,0-73.42,32.937-73.42,73.432c0,40.473,32.937,73.416,73.42,73.416c40.49,0,73.428-32.943,73.428-73.416   C262.436,9461.53,229.498,9428.594,189.008,9428.594"/>
	<path fill="#C7A045" d="M156.635,9442.598c0.191,0.029-0.072,0.631-0.577,0.836c-0.514,0.234-1.873,1.034-1.783,1.215   c0.084,0.175-0.458,1.045-0.83,1.152c-0.372,0.117-1.342,1.045-1.792,1.318c-0.445,0.268-2.303,0.859-2.629,1.258   c-0.323,0.389-0.846,2.086-1.154,2.086c-0.112,0-0.27-0.014-0.396-0.023c0.16,0.198,0.151,0.754,0.075,0.955   c-0.093,0.221-1.435,0.439-2.264,0.586c-0.525,0.097-1.767,0.235-2.581,0.29c-1.224,1.147-2.42,2.334-3.551,3.575   c0.515,0.207,1.282,0.496,1.485,0.836c0.314,0.482,1.184,1.645,0.954,1.892c-0.244,0.248,0.387,0.851,0.629,0.563   c0.27-0.291,0.554-1.295,0.318-1.32c-0.239-0.029-0.794-1.121-0.81-2.223c-0.024-1.123,1.462-2.688,1.756-2.537   c0.288,0.143,0.928,0.918,1.566,0.565c0.625-0.361,1.305,0.821,1.679,0.714c0.363-0.107,1.88,0.062,2.113,0.194   c0.218,0.121,0.623,1.034,1.018,1.034c0.398,0,1.565,0.271,1.744,0.598c0.182,0.326,0.493,1.309,0.306,1.457   c-0.179,0.127-0.106,0.901,0.271,1.081c0.372,0.165,1.489,0.653,1.512,0.919c0.009,0.253,0.6,0.461,0.485,0.665   c-0.12,0.206-0.216,1.246-0.434,1.329c-0.221,0.098-0.548,0.641-0.829,0.381c-0.272-0.271-1.263-0.356-1.085-0.122   c0.168,0.246,0.239,1.445,0.022,1.856c-0.2,0.411-0.427,1.646-1.14,1.139c-0.695-0.51-3.21-1.621-3.751-1.586   c-0.555,0.025-0.112-1.1,1.47-1.751l0.231-1.868l0.134-1.107c-0.599-0.361-1.421-0.852-1.814-1.076   c-0.416-0.211-1.436,0.256-1.768,0.098c-0.329-0.169-1.342-0.133-1.082-0.031c0.248,0.11,0.655,0.924,0.589,1.367   c-0.075,0.418-0.55,1.928-1.076,2.122c-0.553,0.182-2.533,0.784-2.454,0.956c0.076,0.148-0.275,1.004-0.719,1.311   c-0.453,0.32-1.58,1.77-1.888,2.144c-0.312,0.37-1.324,1.318-1.324,1.562c0.009,0.242-0.246,0.433,0.063,0.58   c0.302,0.132,0.596,1.746,1.122,2.031c0.52,0.282,1.816,1.17,2.027,1.038c0.2-0.133,0.677,0.341,0.819,0.121   c0.117-0.22,0.815,0.647,0.918,1.269c0.124,0.635,0.831,1.354,0.924,0.664c0.091-0.688,0.847-1.757,0.651-1.692   c-0.2,0.062-0.37-0.603-0.091-0.577c0.287,0.011,1.059-0.8,1.23-1.705c0.16-0.92,0.069-4.305,0.244-4.4   c0.157-0.098,1.006,0.145,1.155,0.412c0.157,0.266,1.103,0.082,1.357,0.459c0.239,0.374,1.683,0.457,1.683,0.929   s0.271,1.716,0.592,1.754c0.314,0.036,1.115-0.014,1.133-0.255c0.033-0.26,0.408-0.362,0.677,0.182   c0.284,0.549,1.4,1.742,1.395,1.946c-0.015,0.231,0.055,0.876,0.388,1.173c0.329,0.289,0.743,1.655,0.946,1.523   c0.214-0.134,0.84,0.629,0.855,1.1c0.041,0.479,0.099,2.781,0.248,3.18c0.154,0.393,1.129,1.074,1.105,1.415   c-0.042,0.325-0.268,1.05-0.672,0.869c-0.394-0.168-0.996,0.181-1.05,0c-0.061-0.168-0.353-0.606-0.647-0.483   c-0.277,0.116-1.033-0.471-0.591-1.078c0.434-0.613,0.857-2.106,0.253-1.658c-0.589,0.439-2.161,0.101-2.064,0.295   c0.082,0.169-0.227,1.014-0.583,1.099c-0.357,0.085-0.539,1.067-0.236,1.306c0.305,0.242,0.743,1.088,0.287,1.393   c-0.398,0.265-1.32,0.736-1.457,0.821c0.164-0.102-0.414-0.703-1.085-0.497c-0.668,0.23-1.974,1.319-1.807,1.523   c0.161,0.193-0.178,1.33-0.61,1.512c-0.444,0.18-1.823,1.004-2.125,1.383c-0.281,0.394-0.082,2.182-0.253,2.277   c-0.172,0.092-0.838,0.268-0.771,0.473c0.065,0.219-0.72,1.463-1.444,1.838c-0.75,0.373-1.645,2.586-1.532,2.828   c0.12,0.243,0.435,1.111,0.356,1.451c-0.084,0.35-0.257,1.74-0.744,1.522c-0.489-0.228-1.169-2.054-1.641-2.234   c-0.471-0.206-2.058-0.327-2.115-0.215c-0.088,0.103-0.468,0.358-0.895,0.118c-0.417-0.254-2.361-0.135-2.726,0.072   c-0.354,0.229-1.78,2.104-2.119,3.902c-0.369,1.803,2.647,2.77,2.78,2.358c0.148-0.399,0.972-1.255,1.309-1.196   c0.338,0.025,1.671,0.405,1.532,1.006c-0.133,0.602,0.084,2.244,0.744,2.281c0.667,0.051,1.517,1.598,1.362,2.387   c-0.157,0.78,0.511,2.49,0.804,2.278c0.29-0.202,1.359-0.53,1.653-0.414c0.269,0.118,0.78,0.778,1.203,0.441   c0.43-0.341,1.345-1.755,1.62-1.851c0.267-0.086,0.848-0.411,1.013-0.183c0.178,0.242,0.923,0.382,0.977,0.104   c0.042-0.268,1.161-0.014,1.532,0.284c0.375,0.313,1.079,1.388,1.2,1.278c0.109-0.105,0.973-0.033,1.544,0.279   c0.575,0.314,2.448,1.365,2.629,1.863c0.189,0.505,1.88,1.873,2.856,2.463c0.976,0.584,1.257,2.372,1.486,2.516   c0.221,0.141,1.412,0.367,1.889,0.521c0.471,0.132,1.527,1.002,1.837,1.002c0.302,0,1.502,0.15,1.992,0.34   c0.48,0.175,1.414,1.025,1.635,0.826c0.211-0.203,1.024,0.719,1.3,1.45l-0.009,0.964v0.617c-0.127,0.508-0.267,1.117-0.285,1.357   c-0.012,0.234-0.864,1.311-1.097,1.566c-0.243,0.252-0.605,1.389-0.696,1.473c-0.087,0.097-0.577,0.346-0.607,0.632   c-0.037,0.287-0.505,1.46-0.595,2.366c-0.109,0.873-0.523,3.326-0.797,3.442c-0.272,0.094-1.801,0.803-2.01,1.104   c-0.197,0.289-0.825,1.262-0.825,1.585c0,0.325-0.338,1.438-0.741,1.743c-0.411,0.31-0.87,2.158-1.088,2.339   c-0.223,0.179-0.643,0.944-0.779,0.952c-0.133,0-0.523,0.246-0.88,0.246c-0.344,0-1.124,0.301-0.951,0.678   c0.184,0.375-0.149,2.121-0.517,2.439c-0.366,0.305-2.01,0.95-2.092,1.563c-0.093,0.61-1.604,1.316-1.423,2.078   c0.169,0.773-0.139,2.321,0.112,2.502c0.22,0.181,0.208,1.457,0.1,1.715c-0.097,0.281-0.967,0.801-1.181,1.125   c-0.209,0.312-0.109,1.777,0.139,1.898c0.242,0.121,0.431,1.269,0.649,1.5c0.212,0.234,0.656,0.676,0.182,0.773   c-0.474,0.096-1.935,0.206-2.157,0.043c-0.221-0.164-0.953-0.441-0.98-0.441c-0.003-0.014-0.105-0.171-0.175-0.34   c-0.076-0.138-0.272-1.149-0.465-1.682c-0.2-0.537-1.112-2.113-1.194-2.766c-0.07-0.641-0.409-3.229-0.448-3.617   c-0.066-0.397,0.167-1.389-0.054-1.438c-0.202-0.046,0.233-1.039,0.62-1.201c0.372-0.139,0.299-1.396,0.066-1.275   c-0.214,0.119-0.789-1.512-0.831-2.756c-0.021-1.246,1.109-3.76,0.928-4.572c-0.173-0.795,0.287-2.803,0.245-3.043   c-0.052-0.231-0.342-0.799-0.27-1.066c0.058-0.266,0.188-1.358-0.021-2.018c-0.208-0.676-1.212-2.719-1.686-3.145   c-0.475-0.422-1.677-1.672-1.586-1.867c0.085-0.174-0.451-1.227-1.088-1.576c-0.625-0.348-0.755-2.707-0.481-2.732   c0.266-0.049,0.409-0.582,0.067-0.717c-0.341-0.154-1.137-1.168-1.276-1.663c-0.126-0.497,0.481-2.951,0.769-3.3   c0.284-0.338,0.544-2.043,0.659-2.189c0.133-0.15,0.094-1.067-0.081-1.462c-0.173-0.368-0.505-1.452-0.642-1.265   c-0.117,0.189-0.8,0.311-1.218-0.142c-0.408-0.45-2.084-1.097-2.084-1.23c0-0.138-0.224-0.651-0.499-0.833   c-0.278-0.188-0.932-1.052-1.203-1.178c-0.277-0.127-1.565-0.279-1.743-0.599c-0.191-0.302-1.412-1.378-2.37-1.584   c-0.976-0.206-3.974-1.354-4.279-1.908c-0.323-0.563-0.649-3.17-0.973-3.567c-0.323-0.404-1.312-1.511-1.3-1.752   c0.005-0.242-0.375-0.048-0.251,0.277c0.149,0.326,0.076,1.596-0.124,1.475c-0.196-0.132-1.242-0.521-1.417-1.111   c-0.1-0.326-0.468-0.764-0.804-1.136l-0.081-0.03c-0.309,2.641-0.475,5.332-0.475,8.068c0,37.534,30.435,67.958,67.972,67.958   c24.778,0,46.442-13.249,58.32-33.054c-0.183,0.078-0.362,0.15-0.516,0.181c-0.646,0.177-2.337,0.622-2.538,0.466   c-0.187-0.168-0.89-0.969-0.67-1.863l-0.134-1.182l-0.086-0.582c-0.348-0.381-0.614-1.291-0.614-2.049   c0-0.721,0.042-2.568,0.43-2.666c0.392-0.112,1.491-1.437,1.818-2.488l0.594-0.642l0.482-0.521c0.248,0.43,0.46,0.466,0.46,0.096   c0-0.375,0.773-0.99,1.148-1.145c0.381-0.184,1.378-0.051,1.545-0.473c0.182-0.413,0.979-1.682,1.392-1.846   c0.399-0.161,1.632-0.711,1.661-1.032c0.024-0.29,1.18-0.72,2.073-0.751c0.025,0,0.043,0,0.05,0.008   c0.494-1.759,0.93-3.535,1.293-5.355c-0.707-0.417-1.451-0.805-1.657-0.709c-0.306,0.159-0.423-0.362-0.218-0.458   c0.218-0.103,0.412-0.701,0.544-0.501c0.134,0.2,1.125,0.078,1.35-0.043c0.066-0.029,0.188-0.107,0.307-0.188   c0.604-3.637,0.932-7.367,0.932-11.162c0-4.576-0.453-9.036-1.317-13.348c-0.024,0.024-0.061,0.072-0.079,0.072   c-0.659,0.311-1.257,0.49-1.372,0.426c-0.097-0.085-0.798,0.059-1.148,0.289c-0.339,0.242-1.015,1.232-1.287,1.053   c-0.271-0.17-0.253-1.211,0.018-1.211h0.134c-0.097-0.229,0.066-0.82,0.404-1.037c0.429-0.309,1.892-1.261,2.249-1.572   c0.116-0.11,0.325-0.265,0.543-0.422c-0.488-2.111-1.094-4.174-1.782-6.195c-0.473,0.693-1.039,1.473-1.306,1.577   c-0.368,0.144-1.027,1.823-0.834,3.131c0.2,1.317-1.401,3.346-1.776,3.153c-0.399-0.199-0.738-1.934-1.063-2.199   c-0.313-0.266-0.797-1.016-0.736-0.691c0.047,0.326-0.643,1.072-0.707,1.234c-0.075,0.158-0.678,0.352-0.77,0.527   c-0.097,0.191,0.048,1.167,0.2,1.42c0.163,0.27,0.742,1.111,0.785,1.457c0.065,0.356,0.551,1.455,0.46,2.158   c-0.09,0.7-0.636,2.393-0.719,2.471c-0.098,0.102-0.859,0.684-1.248,1.396c-0.384,0.708-2,2.516-2.657,2.49   c-0.678-0.011-1.232,1.076-1.039,1.097c0.205,0.005,0.524,0.549,0.445,0.924c-0.084,0.38-0.877,2.021-0.96,3.48   c-0.086,1.456-2.473,2.805-2.496,2.574c-0.011-0.205-0.513-0.869-0.896-1.162c-0.379-0.287-1.305-0.918-1.401-0.504   c-0.109,0.387-0.055,1.848,0.224,2.211c0.267,0.35,1.421,1.559,1.771,2.077c0.361,0.519,0.036,2.2-0.642,1.644   c-0.652-0.549-2.453-2.357-2.563-2.719c-0.098-0.337-0.182-1.582-0.073-1.802c0.094-0.215,0.151-1.159-0.012-1.509   c-0.145-0.351-0.905-1.125-0.942-1.404c0-0.265-0.191-1.014-0.762-1.014c-0.604,0.023-1.263-0.93-1.159-1.121   c0.096-0.172-0.134-1.299-0.376-1.732c-0.251-0.449-1.332-1.389-1.771-1.227c-0.423,0.139-1.633,0.936-1.976,1.178   s-0.63,1.814-0.702,2.045c-0.086,0.238-1.058,0.228-1.058,0.407c0,0.194-0.137,0.69-0.314,0.69c-0.167,0-0.783,0.725-0.957,1.613   c-0.173,0.891-0.952,3.271-1.312,3.295c-0.374,0.025-0.991-0.529-0.991-0.821c0-0.278-0.155-1.317-0.338-1.681   c-0.205-0.35-1.001-1.693-1.206-2.369c-0.193-0.689-1.132-2.309-1.239-2.573c-0.1-0.273-0.321-1.356-0.64-1.435   c-0.325-0.065-0.82-0.754-0.812-0.926c0.027-0.169-0.218-0.895-0.989-1.758l-1.668,0.258l-0.477,0.087   c-0.122-0.325-0.508-0.392-0.853-0.146c-0.333,0.248-1.846,0.146-1.955-0.066c-0.091-0.218-0.735-1.439-1.277-2.119   c-0.563-0.668-2.471-2.01-2.634-1.9c-0.163,0.09-0.54,0.568-0.45,0.872c0.124,0.29,1.16,0.827,1.372,1.269   c0.2,0.439,0.786,1.607,1.064,1.426c0.274-0.17,1.632,0.182,1.913,0.641c0.28,0.447,0.724,1.941,0.479,2.193   c-0.241,0.26-0.567,1.838-0.958,2.134c-0.371,0.298-1.731,0.933-1.762,1.147c-0.039,0.25-1.094,0.922-1.952,1.332   c-0.853,0.398-3.463,0.748-3.769,0.053c-0.305-0.681-1.475-2.877-1.924-3.563c-0.445-0.699-1.886-2.754-1.989-3.26   c-0.101-0.509-0.704-1.086-0.647-0.738c0.061,0.351,0.108,1.627,0.386,1.887c0.284,0.264,1.183,1.426,1.506,1.873   c0.317,0.461,0.816,2.873,1.378,3.289c0.558,0.445,1.469,2.537,1.857,2.537c0.391,0,1.624-0.205,1.853-0.453   c0.242-0.248,1.543,0.102,1.666,0.609c0.117,0.517-0.465,2.697-1.061,3.689c-0.605,0.994-2.469,3.77-2.774,4   c-0.3,0.242-1.274,1.371-1.466,2.021c-0.196,0.634-0.773,3.292-0.677,4.688c0.093,1.391-0.813,5.281-1.587,6.078   c-0.773,0.801-1.659,4.475-1.939,4.559c-0.269,0.074-1.006,0.659-1.104,1.022c-0.115,0.356-0.459,2.024-0.955,2.472   c-0.486,0.466-1.961,2.659-2.829,3.174c-0.881,0.514-4.133,0.26-4.423-0.781c-0.312-1.049-1.6-3.564-1.6-3.988   c0-0.423-0.262-2.219-0.564-3.071c-0.312-0.821-1.5-3.261-1.394-4.138c0.091-0.877,0.686-3.362,0.604-4.125   c-0.096-0.74-0.955-2.834-1.166-3.594c-0.203-0.766-0.891-3.297-0.695-4.015c0.2-0.728-0.111-3.226-0.38-3.142   c-0.281,0.072-1.215,0.217-1.56,0.018c-0.347-0.175-1.771-0.61-1.786-1.141l-0.446-0.044l-0.949-0.11   c-0.262,0.77-1,1.385-1.662,1.385c-0.65,0-2.642-0.035-3.262-0.414c-0.607-0.379-2.445-1.949-2.744-2.67   c-0.311-0.712-1.365-3.274-1.365-4.5c0-1.209,0.268-4.837,0.579-5.344c0.321-0.51,1.427-3.018,2.402-3.766l0.363-0.688l0.541-1.066   c0.217-1.521,0.729-2.912,1.14-3.092c0.399-0.172,1.194-1.15,1.526-1.088c0.33,0.059,1.394,0.397,2.118,0.084   c0.702-0.315,3.694-0.643,4.286-0.848c0.581-0.218,2.581-0.168,2.672,0.103c0.074,0.261-0.257,0.695-0.058,0.872   c0.157,0.176,0.852,1.505,1.741,1.879c0.864,0.367,2.771,1.571,2.914,1.207c0.138-0.361,1.943-0.785,3.173-0.688   c1.226,0.084,4.076,0.434,4.203-0.071c0.137-0.51,0.94-1.607,0.94-1.887c0-0.284-0.033-0.7-0.1-0.303   c-0.06,0.424-1.034,0.362-0.964,0.097c0.057-0.242-1.589-0.52-2.823-0.158l-0.874-0.662l-0.375-0.298   c-0.182-0.399-0.335-0.96-0.335-1.238c-0.012-0.29,0.123-1.525,0-1.525c-0.127,0-0.442,0.483-0.399,1.09   c0.045,0.606-0.006,1.994,0.372,2.02c0.368,0.011,0.205,0.954-0.163,0.954c-0.368-0.022-0.692-0.748-0.623-0.762   c0.073-0.012-0.199-0.218-0.581-0.186c-0.359,0.022-0.979-0.539-0.979-0.83c0-0.277-0.127-1.322-0.291-1.715l-0.19-0.322   c-0.136-0.224-0.335-0.817-0.472-1.01l-0.794-1.1c-1.125-0.953-1.56-1.221-0.96-0.608c0.621,0.608,1.577,2.288,1.374,2.065   c-0.204-0.225-0.667,0.448-0.513,0.502c0.175,0.061-0.115,0.811-0.468,0.991c-0.369,0.181-0.813,1.379-1.155,1.274   c-0.33-0.107-0.33-1.08,0-1.066c0.32,0.01,0.386-0.876,0.126-1.298c-0.283-0.403-1.709-0.978-1.77-1.244   c-0.061-0.267-0.417,0.063-0.191,0.786c0.196,0.738-1.269,0.836-1.457,0.055c-0.19-0.777,0.034-2.207-0.356-1.958   c-0.386,0.249-1.93,0.187-2.227,0.665c-0.309,0.471-1.741,1.748-1.922,2.445c-0.175,0.705-1.084,2.202-1.366,2.07   c-0.278-0.136-1.635,0.072-1.931-0.136c-0.277-0.215-1.687-0.482-1.768-0.903c-0.101-0.424-0.264-1.971-0.212-2.51   c0.07-0.525,0.904-1.975,1.59-2.133c0.672-0.163,2.454,0.145,2.586-0.048c0.121-0.181,0.239-0.86-0.057-1.114   c-0.299-0.252-0.731-1.572-1.101-1.559c-0.383,0.03-0.84-0.508-0.677-0.732c0.167-0.24,1.082-0.84,1.294-1.141   c0.242-0.322,1.544-0.508,1.626-0.581c0.075-0.06-0.493-0.375-1.218-0.361c-0.722,0.022-2.318,0.096-2.094-0.05   c0.212-0.138,0.662-0.773,0.465-1.087c-0.19-0.327,0.139-1.741,0.507-1.771c0.356-0.025,0.4-0.996,0.227-1.04   c-0.167-0.042-0.779-0.86-0.667-1.404c0.129-0.523,0.269-2.483,0.543-2.653c0.285-0.162,1.306-0.033,1.212,0.183   c-0.099,0.218-0.389,0.737-0.226,0.882c0.166,0.146,0.867,0.872,1.145,1.294c0.272,0.423,0.359,2.388,0.528,2.552   c0.17,0.131,0.473,0.826,0.254,1.219c-0.097,0.201-0.23,0.559-0.311,0.806c0.356-0.356,1.456-0.526,1.526-0.792   c0.076-0.297,0.638-1.089,1-1.232c0.357-0.129,1.497-0.473,1.509-0.713c0.015-0.23-0.388-0.551-0.267-0.846   c0.112-0.278,0.354-1.281-0.114-1.305c-0.445-0.025-1.074-1.222-1.074-1.828c0-0.615-0.335-2.326-0.148-3.068   c0.182-0.752,1.823-1.602,1.823-1.797c0-0.174,0.148-0.684,0.331-0.695c0.195-0.012,0.645-0.096,0.957-0.544   c0.321-0.453,1.309-2.351,1.852-2.784c0.557-0.447,1.992-1.855,2.164-1.947c0.163-0.104,0.674-0.049,1.021-0.33   c0.345-0.293,1.604-1.02,2.007-1.02c0.393,0,1.62,0.205,1.856,0.473c0.235,0.254,1.09,1.147,1.517,1.258   c0.432,0.125,1.925,1.049,2.889,1.297c0.955,0.254,1.445,1.832,1.847,1.525c0.405-0.309,0.865-1.928,1.091-1.843   c0.239,0.069,1.021,0.325,1.021,0.615c0,0.28,0.405,0.726,0.89,0.351c0.48-0.351,2.538-1.186,3.245-1.244   c0.71-0.066,1.994,0.059,1.632-0.012c-0.378-0.074,0.048-1.269,0.477-1.07c0.433,0.164,2.699-0.205,3.171-0.689   c0.478-0.48,1.765-1.813,2.052-1.662c0.314,0.158,1.02,0.525,1.158,0.247c0.139-0.259,1.169,0,1.156,0.356   c-0.02,0.34,0.354,0.714,0.496,0.475c0.124-0.232,0.58-0.934,0.989-0.729c0.426,0.218,1.356,0.51,1.027,0.352   c-0.333-0.156-0.387-1.306-0.133-1.402c0.25-0.097,1.047-0.543,1.147-0.822c0.109-0.268,0.768-0.894,1.034-1.021   c0.284-0.113,1.426-0.608,2.047-0.693c0.603-0.098,1.848-0.715,1.981-0.544c0.129,0.196,0.803,0.179,0.952-0.146   c0.124-0.327,1.443-0.526,1.504-0.94c0.048-0.426,0.813-0.861,1.031-0.632c0.232,0.231,1.496,0.64,2.085,0.667   c0.189,0,0.469,0,0.758,0c-11.777-9.794-26.917-15.691-43.438-15.691c-11.741,0-22.786,2.996-32.423,8.231 M136.842,9458.469   c0.014-0.022,0.047-0.059,0.062-0.076c0.337,0.041,0.625,0.139,0.645,0.266c0.037,0.295,0.603,0.188,0.819-0.482   c0.127-0.394,0-0.932-0.118-1.338c0.235-0.277,0.481-0.543,0.723-0.808 M224.752,9445.753c0.949-0.06,1.749,0.958,1.095,1.089   c-0.662,0.108-2.902-0.131-2.89-0.435C222.993,9446.117,223.786,9445.814,224.752,9445.753 M209.449,9445.869   c-0.883-0.116-1.32,1.033-2.121,0.248C207.238,9444.807,209.431,9444.241,209.449,9445.869 M205.728,9455.326   c0.178-0.275,0.699-2.694,1.028-3.021c0.312-0.32,1.179-0.875,1.919-1.232c0.746-0.363,3.203-0.942,3.254-1.016   c0.061-0.107,0.318-0.359,0.545-0.359c0.199,0,0.589,0.433,0.354,0.963c-0.244,0.533-2.369,1.232-2.898,1.762   c-0.51,0.524-2.43,1.588-2.18,2.17c0.219,0.603,0.627,2.289,0.444,2.344c-0.165,0.059-0.767,0.192-1.205-0.077   C206.533,9456.588,205.547,9455.607,205.728,9455.326 M191.47,9444.391c1.109,0.033,4.01,0.612,3.775,0.85   c-0.232,0.225-1.318,1.022-2.272,0.889c-0.967-0.145-3.47-1.195-3.473-1.402C189.488,9444.502,190.367,9444.352,191.47,9444.391    M185.423,9445.767c0.641-0.349,1.569,0.362,1.447,0.048c-0.129-0.302,0.847-0.846,1.339-0.677   c0.478,0.159,0.738,1.379,1.006,1.412c0.275,0.045,0.692,0.257,0.937,0.497c0.248,0.242,0.991,0.08,1.575,0.398   c0.583,0.305,0.383,2.365-0.154,2.207c-0.541-0.162-1.739-0.568-1.88-0.065c-0.133,0.507-0.746,1.897-1.099,1.909   c-0.366,0.006-0.84-0.824-1.186-0.869c-0.356-0.05-0.782-0.689-0.449-1c0.295-0.318,0.35-1.51,0.033-1.243   c-0.323,0.265-1.565,0.393-1.587,0.216c-0.006-0.182-0.224-1.074-0.522-1.228C184.586,9447.224,184.768,9446.092,185.423,9445.767    M143.617,9463.125c-0.541-0.34-1.264,1.354-1.72,1.33c-0.447-0.031-0.656-1.132-0.418-1.361c0.237-0.209,0.922-0.777,1.131-0.664   c0.178,0.121,1.752,0.816,1.843,0.998C144.544,9463.596,144.173,9463.475,143.617,9463.125 M144.363,9496.381   c0.256,0.113,0.695,0.826,0.931,0.809c0.242-0.03,0.19,0.449-0.208,0.641c-0.398,0.188-0.699-0.48-0.879-0.43   c-0.169,0.041-0.309-0.117-0.309-0.356C143.897,9496.814,144.109,9496.287,144.363,9496.381 M142.952,9495.189   c0.125,0,0.544,0.15,0.645,0.336c0.069,0.188-0.816,0.781-0.841,0.384C142.728,9495.51,142.822,9495.189,142.952,9495.189    M141.51,9495.363c0.264,0.098,0.03,0.846-0.135,0.846c-0.182,0-0.33-0.162-0.33-0.35   C141.045,9495.662,141.259,9495.256,141.51,9495.363 M142.045,9500.544c-0.239-0.006-1.229,0.108-1.229-0.08   c0-0.193,0.963-0.478,1.211-0.276C142.272,9500.393,142.272,9500.549,142.045,9500.544 M145.95,9500.188   c-0.457-0.063-1.024,0.465-1.251,0.287c-0.233-0.18-1.363-0.402-1.473-0.673c-0.117-0.278,0.109-1.04-0.365-0.944   c-0.462,0.084-1.117-0.133-1.424-0.508c-0.313-0.362-1.842-0.736-2.163-0.549c-0.326,0.172-1.457,0.029-1.357-0.199   c0.097-0.227,0.822-0.896,1.462-0.896c0.666,0,2.593,0.182,2.832,0.375c0.256,0.203,1.118,0.75,1.306,0.828   c0.178,0.079,0.776,0.816,1.533,0.779C145.808,9498.627,146.407,9500.246,145.95,9500.188 M148.374,9500.32   c-0.158,0.303-1.143,0.332-1.143,0.144c0-0.193,0.701-0.689,0.955-0.689C148.458,9499.774,148.531,9500.02,148.374,9500.32    M155.321,9549.616h-0.94C154.333,9548.775,155.479,9548.611,155.321,9549.616 M176.417,9473.581   c-0.369,0.072-1.257,0.097-1.308-0.267c-0.067-0.355,0.069-1.311,0.323-1.207c0.257,0.107,0.665-0.934,0.874-0.934   c0.217,0,0.762,1.415,0.771,1.719C177.091,9473.205,176.79,9473.508,176.417,9473.581 M177.811,9463.035   c-0.312,0.029-1.23,0.501-1.683,0.586c-0.444,0.072-0.932-0.176-1.064-0.557c-0.136-0.37-1.284-0.551-1.136-0.798   c0.158-0.24,0.312-0.966,0.163-0.853c-0.148,0.129-0.658-0.09-0.305-0.248c0.335-0.151,0.502-1.318,0.716-1.076   c0.221,0.23,1.348,0.617,1.701,0.639c0.369,0.021,1.882-0.021,2.091,0.326C178.479,9461.396,178.122,9463.006,177.811,9463.035    M170.411,9459.497c-0.465,0.351-2.179,1.07-2.412,1.257c-0.211,0.194-1.016,0.807-1.275,0.943   c-0.271,0.146-1.49-0.034-1.575,0.242c-0.104,0.279-0.819,2.842-1.151,3.378c-0.317,0.54-0.747,1.157-0.946,1.36   c-0.196,0.219-0.7,0.68-0.843,0.412c-0.138-0.273-1.188-0.545-1.487-0.545c-0.302,0-1.106-1.039-1.097-2.309   c0.006-1.274-1.42-3.773-1.109-4.019c0.312-0.272,0.146-1.009,0.465-1.238c0.296-0.231,0.668-1.005,0.136-1.187   c-0.544-0.166-0.831-1.426-0.393-1.391c0.438,0.051,0.493-0.676,0.296-0.463c-0.193,0.212-1.282-0.383-1.242-0.709   c0.045-0.326,0.009-1.448-0.172-1.777c-0.169-0.313-0.623-1.787-1.206-1.85c-0.599-0.078-1.907-0.48-2.025-0.275   c-0.125,0.179-1.33,0.016-1.792-0.135c-0.471-0.161-0.599-1.292-0.024-1.331c0.562-0.036,1.795-0.265,1.5-0.372   c-0.297-0.121-1.388-0.219-1.71-0.395c-0.346-0.188-0.689,0.176-0.808-0.021c-0.115-0.195-0.728-0.4-0.425-0.69   c0.305-0.309,1.546-0.369,2.082-0.558c0.514-0.187,1.397-0.961,1.062-0.984c-0.33-0.035,0.443-1.424,1.423-1.957   c0.982-0.533,4.748-1.33,5.451-1.35c0.696-0.005,2.936,0,2.86-0.332c-0.063-0.338,0.287-1.292,0.789-1.414   c0.475-0.138,2.711-0.23,3.636-0.193c0.903,0.048,2.831-0.568,3.098-0.532c0.271,0.036,1.009,0.374,1.39,0.304   c0.374-0.085,1.979,0.154,2.638,0.154c0.653,0,1.161,0.867,0.556,0.999c-0.611,0.138-0.918,1.398-0.478,1.216   c0.432-0.182,1.958-0.023,2.146,0.162c0.172,0.188,1.182,0.387,1.574,0.343c0.388-0.048,0.197,0.908-0.171,1.004   c-0.354,0.075-1.375,0.569-1.539,0.806c-0.153,0.246-1.048,0.492-0.927,0.693c0.118,0.206-0.134,1.307-0.324,1.475   c-0.178,0.177-0.673,0.298-0.166,0.395c0.514,0.116,0.638,1.336,0.227,1.348c-0.429,0.016-1.148,1.141-0.87,2.219   c0.281,1.095-1.296,2.252-1.115,2.436c0.173,0.18,0,1.131-0.172,1.015c-0.161-0.109-0.345-0.109,0,0.133   c0.35,0.268-0.563,0.927-1.04,0.737c-0.468-0.194-1.855-0.561-1.985-0.422c-0.133,0.145-0.333,0.518,0.124,0.803   c0.456,0.308,1.003,0.206,0.638,0.526C171.659,9457.727,170.873,9459.166,170.411,9459.497 M208.248,9525.269   c-0.119,0.6-0.313,1.144-0.438,1.206c-0.123,0.066-0.25,0.584-0.25,0.816c0,0.237-0.105,1.228-0.225,1.689   c-0.126,0.459-0.984,2.054-1.301,2.141c-0.309,0.078-1.379-0.326-1.437-0.857c-0.06-0.533-0.508-2.346-0.368-2.611   c0.145-0.273,0.371-1.247,0.26-1.5c-0.115-0.242,0.221-1.668,0.534-2.09c0.297-0.432,1.698-1.434,1.841-1.936   c0.148-0.496,0.704-1.232,0.723-0.75C207.606,9521.873,208.376,9524.665,208.248,9525.269 M226.593,9507.889   c-0.118,0.254-1.657-0.824-1.425-1.32c0.256-0.494,0.679-0.691,0.953-0.428C226.396,9506.413,226.729,9507.644,226.593,9507.889    M248.45,9499.268c0.653,0.141,1.053,0.594,0.858,1.003c-0.168,0.431-0.858,1.354-1.135,1.103   C247.876,9501.117,247.788,9499.134,248.45,9499.268 M238.466,9515.309c-0.399-0.314-2.162-4.742-3.077-5.402   c-0.523-0.363-0.889-0.616-1.057-0.748h-0.013c-0.146-0.1-0.107-0.1,0.013,0c0.326,0.229,0.653-0.535,0.731-0.34   c0.078,0.199,1.051,0.703,1.391,1.354l0.349,0.59l0.327,0.544c0.876,0.684,1.818,1.79,2.104,2.432   C239.517,9514.377,238.864,9515.623,238.466,9515.309 M243.531,9518.191c-1.01-0.271-4.049-0.767-3.983-1.064   c0.079-0.283,0.98-0.74,1.761-0.464c0.772,0.302,3.396,1.546,3.637,1.718C245.176,9518.547,244.545,9518.453,243.531,9518.191    M246.899,9511.712c-0.063,0.468-0.201,1.271-0.315,1.82c-0.115,0.532-0.914,1.377-0.839,1.438   c0.089,0.037,0.155,0.184-0.063,0.229c-0.222,0.055-0.615,0.424-0.978,0.109c-0.35-0.314-2.405-0.543-2.671-0.967   c-0.254-0.423,0.103-2.225,1.076-2.756c1.003-0.52,2.369-3.51,2.791-3.361c0.436,0.145,1.299,0.984,1.228,1.281   C247.024,9509.797,246.952,9511.248,246.899,9511.712 M246.869,9496.898c-0.098-0.326-0.314-1.256-0.032-1.618   c0.309-0.362,0.896,1.244,0.647,1.571C247.235,9497.201,246.939,9497.214,246.869,9496.898 M249.685,9512.977   c-0.256,0.096-0.504,1.305-0.256,1.692c0.256,0.386,0.256,0.64,0,0.56c-0.248-0.074-1.087-0.452-1.233-0.234   c-0.148,0.219-0.434,0.304-0.698-0.756c-0.279-1.051,1.122-2.871,1.643-2.762C249.648,9511.586,249.926,9512.891,249.685,9512.977    M252.083,9505.274c-0.496,0.087-1.318,0.733-1.397,0.546c-0.096-0.183-0.99-1.021-1.184-0.99   c-0.176,0.035-0.194-0.207-0.024-0.535c0.182-0.336,1.094-0.506,1.063-0.898c-0.017-0.404,0.533-0.963,0.798-0.842   c0.278,0.123,0.776,1.137,1.168,1.242C252.895,9503.893,252.572,9505.215,252.083,9505.274 M255.329,9511.793   c-0.029,1.063-1.8,1.318-2.575,0.762C252.683,9511.355,254.574,9511.279,255.329,9511.793"/>
	<path fill="#B5993E" d="M155.092,9473.082c-0.055-0.08-0.335,0.123-0.237,0.27C154.922,9473.424,155.215,9473.205,155.092,9473.082   "/>
</g>
</svg>
